<svg width="354" height="236" viewBox="0 0 354 236" fill="none" xmlns="http://www.w3.org/2000/svg">
<path d="M213.343 48.5939C214.088 46.3755 217.323 46.7054 217.604 49.0284L217.96 51.9604C218.142 53.4659 219.759 54.3377 221.117 53.6622L223.761 52.3467C225.857 51.3045 227.911 53.8255 226.467 55.6671L224.645 57.9914C223.71 59.185 224.237 60.9451 225.675 61.4275L228.475 62.3672C230.693 63.1116 230.363 66.347 228.04 66.6284L225.108 66.9835C223.603 67.1659 222.731 68.7833 223.406 70.1411L224.722 72.7854C225.764 74.8804 223.243 76.9349 221.401 75.4913L219.077 73.6692C217.884 72.7336 216.123 73.2609 215.641 74.6986L214.701 77.4986C213.957 79.7169 210.722 79.387 210.44 77.064L210.085 74.1321C209.903 72.6265 208.285 71.7548 206.927 72.4303L204.283 73.7457C202.188 74.788 200.134 72.2669 201.577 70.4254L203.399 68.101C204.335 66.9075 203.808 65.1474 202.37 64.6649L199.57 63.7253C197.352 62.9809 197.682 59.7455 200.004 59.4641L202.936 59.109C204.442 58.9266 205.314 57.3091 204.638 55.9514L203.323 53.3071C202.281 51.212 204.802 49.1576 206.643 50.6012L208.968 52.4233C210.161 53.3589 211.921 52.8316 212.404 51.3939L213.343 48.5939Z" fill="#E1DCD0"/>
<path d="M60.3518 64.3527C55.8337 65.8712 45.2323 73.6022 53.2036 75.5766C53.8063 75.7259 54.4174 75.829 55.0329 75.8913M60.3518 64.3527C60.6942 64.2376 61.0016 64.1582 61.2634 64.1197L60.3518 64.3527ZM55.0329 75.8913C61.424 76.5387 68.2912 72.7891 71.1363 70.6433C72.5014 69.6138 74.2073 67.9693 75.2455 66.1572M55.0329 75.8913C53.1114 77.4012 50.2537 81.2418 54.1949 84.5257C54.4126 84.7071 54.6513 84.871 54.9089 85.0173M75.2455 66.1572C76.5795 63.8288 76.8107 61.2237 73.7987 59.2918C67.1037 54.9976 53.3516 62.9309 48.6754 66.2488C43.9992 69.5667 39.6456 59.7351 36.6915 52.7866C33.7375 45.8381 27.5085 37.7552 24.3339 42.4397C21.1594 47.1242 23.7314 50.6956 36.3461 82.2931C44.749 103.341 46.0604 115.627 45.4963 120.974C45.3444 122.414 45.7881 123.996 47.0224 124.753C57.7924 131.359 68.5601 128.068 74.1561 124.66C75.2999 123.963 75.7 122.544 75.2917 121.269C71.2339 108.592 71.5391 100.799 72.4036 98.7235M75.2455 66.1572L76.0943 67.9059C76.9266 69.6203 77.2448 71.5846 76.5839 73.3721C76.3692 73.9528 76.128 74.5137 75.8628 75.0548M54.9089 85.0173C53.4656 86.9754 51.9405 91.2783 57.3861 92.826C62.8118 94.3681 72.8624 89.8038 76.7603 84.259M54.9089 85.0173C59.7606 87.7746 71.3182 84.329 75.8628 75.0548M75.8628 75.0548L77.368 77.9826C78.0216 79.2538 78.4439 80.7031 77.9499 82.0444C77.6747 82.7918 77.2702 83.5338 76.7603 84.259M58.3938 93.1751C57.7763 95.5006 57.9562 100.303 63.6151 100.909C70.4704 101.643 81.7731 94.51 79.0925 87.1224C78.919 86.6443 78.6156 86.2274 78.2668 85.8573L76.7603 84.259" stroke="black" stroke-width="4.35709"/>
<path d="M41.9532 21.3564C41.6915 19.9862 43.4104 19.1518 44.3251 20.2049L46.3519 22.5395C47.0498 23.3434 48.0998 23.742 49.1473 23.613L49.3573 23.5806L52.3939 22.9998C53.7215 22.7462 54.5463 24.3521 53.6386 25.2843L53.5454 25.3718L51.2108 27.3986C50.4069 28.0965 50.0083 29.1465 50.1372 30.194L50.1697 30.404L50.7504 33.4406C51.0122 34.8109 49.2932 35.6454 48.3784 34.5921L46.3517 32.2575C45.6538 31.4536 44.6038 31.0549 43.5563 31.1839L43.3463 31.2164L40.3097 31.7971C38.9395 32.0588 38.105 30.3399 39.1582 29.4251L41.4928 27.3984C42.3503 26.6539 42.7471 25.5083 42.5339 24.393L41.9532 21.3564Z" fill="#FFCA00" stroke="black" stroke-width="1.82071"/>
<path d="M67.1795 32.9483C66.8733 32.3488 67.4955 31.7308 68.0718 31.9767L68.1862 32.0378L69.7903 33.0717C70.4216 33.4787 71.222 33.5187 71.891 33.1771L73.5912 32.3083C74.2305 31.9818 74.8905 32.7117 74.5017 33.3151L73.467 34.9198C73.0855 35.5117 73.0266 36.2523 73.3023 36.8937L73.3616 37.0205L74.2304 38.7207C74.5568 39.36 73.827 40.0201 73.2236 39.6312L71.619 38.5965C71.0272 38.2152 70.287 38.1557 69.6457 38.4311L69.5182 38.4911L67.8188 39.3593C67.2192 39.6655 66.6011 39.0432 66.8472 38.467L66.9082 38.3525L67.9422 36.7485C68.3492 36.117 68.3894 35.3168 68.0476 34.6478L67.1795 32.9483Z" fill="#FFCA00" stroke="black" stroke-width="1.40523"/>
<g filter="url(#filter0_d_119_6)">
<rect x="69.6673" y="132.032" width="229.353" height="70.6479" rx="35.324" transform="rotate(3.65955 69.6673 132.032)" fill="url(#paint0_linear_119_6)" stroke="#3E211C" stroke-width="0.818781"/>
<rect x="147.716" y="157.72" width="78.3669" height="13.321" rx="6.55025" transform="rotate(2.48987 147.716 157.72)" fill="#D9D9D9"/>
<rect x="147.026" y="177.693" width="60.1125" height="11.1735" rx="5.58675" transform="rotate(2.48987 147.026 177.693)" fill="#D9D9D9"/>
<circle cx="110.314" cy="171.274" r="23.9044" fill="#FECD4F"/>
<path d="M102.697 160.468C106.094 154.626 114.534 154.626 117.931 160.468V160.468C118.7 161.789 119.798 162.888 121.119 163.656V163.656C126.962 167.054 126.962 175.493 121.119 178.891V178.891C119.798 179.659 118.7 180.758 117.931 182.079V182.079C114.534 187.921 106.094 187.921 102.697 182.079V182.079C101.928 180.758 100.83 179.659 99.5089 178.891V178.891C93.6661 175.493 93.6661 167.054 99.5089 163.656V163.656C100.83 162.888 101.928 161.789 102.697 160.468V160.468Z" fill="white"/>
</g>
<path d="M262.464 154.542C261.586 149.409 265.034 144.536 270.166 143.657L279.276 142.097C280.423 141.901 281.597 141.918 282.738 142.149L297.777 145.193C298.918 145.424 300.091 145.442 301.239 145.246L328.809 140.524C333.941 139.645 338.814 143.093 339.693 148.226L348.772 201.244C349.651 206.376 346.203 211.249 341.071 212.128L283.578 221.974C278.446 222.853 273.572 219.405 272.693 214.272L262.464 154.542Z" fill="url(#paint1_linear_119_6)"/>
<rect x="270.924" y="160.226" width="63.5654" height="33.4854" rx="7.54267" transform="rotate(-9.71769 270.924 160.226)" fill="white"/>
<path d="M264.434 176.17C263.564 171.989 266.336 167.921 270.545 167.201L284.94 164.735L302.561 161.718L336.578 155.892C340.875 155.156 344.9 158.207 345.353 162.544L349.631 203.511C350.043 207.464 347.319 211.058 343.402 211.729L281.462 222.336C277.458 223.022 273.63 220.414 272.804 216.437L264.434 176.17Z" fill="url(#paint2_linear_119_6)"/>
<path d="M279.771 216.923L279.42 214.877L277.01 211.727L277.899 211.575L279.819 214.226L279.622 214.26L280.543 211.122L281.424 210.971L280.207 214.742L280.557 216.788L279.771 216.923ZM284.175 216.266C283.802 216.329 283.452 216.3 283.123 216.178C282.8 216.056 282.525 215.854 282.299 215.575C282.078 215.289 281.932 214.941 281.862 214.532C281.79 214.112 281.814 213.733 281.934 213.394C282.053 213.05 282.247 212.765 282.517 212.541C282.786 212.317 283.107 212.173 283.479 212.109C283.857 212.045 284.207 212.074 284.531 212.196C284.854 212.319 285.126 212.521 285.347 212.802C285.573 213.081 285.722 213.431 285.794 213.851C285.865 214.27 285.841 214.649 285.721 214.988C285.606 215.327 285.414 215.608 285.145 215.832C284.876 216.056 284.552 216.201 284.175 216.266ZM284.059 215.589C284.274 215.552 284.459 215.466 284.614 215.332C284.774 215.197 284.89 215.018 284.959 214.795C285.034 214.566 285.044 214.297 284.991 213.988C284.938 213.679 284.842 213.431 284.702 213.244C284.561 213.052 284.393 212.919 284.196 212.845C284.005 212.769 283.805 212.75 283.595 212.786C283.385 212.822 283.2 212.907 283.04 213.043C282.879 213.178 282.762 213.36 282.688 213.589C282.618 213.811 282.61 214.077 282.663 214.387C282.716 214.696 282.813 214.947 282.953 215.139C283.099 215.324 283.267 215.455 283.458 215.53C283.654 215.604 283.854 215.624 284.059 215.589ZM288.53 215.52C288.221 215.573 287.94 215.556 287.687 215.47C287.44 215.382 287.232 215.224 287.063 214.993C286.9 214.762 286.785 214.455 286.719 214.073L286.317 211.72L287.103 211.586L287.491 213.851C287.555 214.224 287.684 214.49 287.879 214.651C288.074 214.812 288.324 214.867 288.628 214.815C288.832 214.78 289.007 214.698 289.153 214.571C289.304 214.442 289.41 214.276 289.472 214.071C289.534 213.866 289.542 213.627 289.495 213.354L289.133 211.238L289.92 211.103L290.599 215.068L289.898 215.188L289.727 214.521C289.648 214.783 289.505 215.002 289.297 215.178C289.09 215.354 288.834 215.468 288.53 215.52ZM291.676 214.884L290.997 210.919L291.705 210.798L291.903 211.533C291.962 211.339 292.052 211.17 292.173 211.025C292.293 210.875 292.441 210.75 292.619 210.649C292.801 210.548 293.015 210.476 293.262 210.434L293.405 211.268L293.121 211.316C292.959 211.344 292.808 211.392 292.668 211.459C292.528 211.521 292.408 211.609 292.308 211.723C292.214 211.836 292.15 211.979 292.115 212.153C292.08 212.326 292.083 212.533 292.124 212.775L292.462 214.749L291.676 214.884ZM280.074 227.016L279.131 221.509L280.822 221.22C281.462 221.11 282.011 221.132 282.469 221.286C282.927 221.44 283.292 221.707 283.562 222.087C283.837 222.461 284.022 222.931 284.119 223.497C284.216 224.064 284.198 224.569 284.063 225.013C283.934 225.456 283.679 225.827 283.298 226.124C282.921 226.415 282.41 226.616 281.765 226.727L280.074 227.016ZM280.747 226.221L281.621 226.071C282.129 225.984 282.519 225.831 282.789 225.612C283.059 225.393 283.231 225.118 283.304 224.787C283.381 224.45 283.383 224.066 283.309 223.636C283.235 223.201 283.105 222.837 282.92 222.545C282.74 222.252 282.486 222.047 282.159 221.93C281.831 221.814 281.413 221.799 280.904 221.886L280.031 222.036L280.747 226.221ZM287.322 225.872C286.95 225.936 286.6 225.907 286.271 225.785C285.948 225.662 285.673 225.461 285.447 225.181C285.225 224.895 285.079 224.548 285.009 224.139C284.937 223.719 284.961 223.34 285.082 223.001C285.201 222.656 285.395 222.372 285.664 222.148C285.934 221.924 286.254 221.779 286.627 221.716C287.004 221.651 287.355 221.68 287.678 221.803C288.001 221.926 288.274 222.127 288.494 222.408C288.72 222.688 288.869 223.038 288.941 223.457C289.013 223.877 288.989 224.256 288.869 224.595C288.754 224.933 288.562 225.214 288.293 225.439C288.023 225.663 287.7 225.807 287.322 225.872ZM287.206 225.196C287.422 225.159 287.607 225.073 287.762 224.938C287.922 224.803 288.037 224.624 288.107 224.402C288.181 224.173 288.192 223.904 288.139 223.595C288.086 223.285 287.989 223.037 287.849 222.851C287.709 222.659 287.54 222.526 287.344 222.451C287.153 222.376 286.952 222.356 286.743 222.392C286.533 222.428 286.348 222.514 286.187 222.649C286.027 222.785 285.91 222.967 285.836 223.195C285.766 223.418 285.757 223.684 285.81 223.993C285.863 224.303 285.96 224.553 286.101 224.745C286.246 224.931 286.414 225.061 286.605 225.137C286.802 225.211 287.002 225.231 287.206 225.196ZM292.055 225.062C291.672 225.127 291.317 225.099 290.988 224.977C290.659 224.85 290.381 224.647 290.155 224.367C289.934 224.086 289.789 223.741 289.718 223.332C289.648 222.918 289.669 222.542 289.784 222.203C289.904 221.859 290.098 221.575 290.367 221.351C290.635 221.121 290.961 220.973 291.344 220.908C291.826 220.825 292.252 220.882 292.62 221.078C292.988 221.274 293.254 221.58 293.417 221.994L292.599 222.134C292.507 221.913 292.355 221.755 292.145 221.661C291.94 221.567 291.709 221.542 291.452 221.586C291.242 221.622 291.058 221.71 290.898 221.851C290.738 221.986 290.62 222.168 290.546 222.397C290.476 222.619 290.467 222.883 290.52 223.187C290.558 223.412 290.624 223.609 290.718 223.776C290.81 223.939 290.919 224.071 291.045 224.174C291.176 224.276 291.317 224.346 291.47 224.384C291.621 224.418 291.776 224.421 291.933 224.394C292.106 224.365 292.256 224.312 292.384 224.236C292.515 224.154 292.619 224.05 292.694 223.924C292.775 223.797 292.821 223.654 292.832 223.495L293.65 223.355C293.632 223.79 293.483 224.164 293.202 224.476C292.92 224.784 292.538 224.979 292.055 225.062ZM296.343 224.327C296.007 224.385 295.704 224.38 295.433 224.313C295.163 224.246 294.937 224.125 294.756 223.951C294.575 223.777 294.446 223.559 294.369 223.297L295.171 223.16C295.219 223.281 295.288 223.388 295.38 223.48C295.476 223.571 295.596 223.637 295.738 223.678C295.885 223.717 296.05 223.722 296.234 223.69C296.407 223.66 296.544 223.613 296.646 223.547C296.753 223.474 296.825 223.392 296.863 223.299C296.9 223.201 296.91 223.102 296.893 223.002C296.868 222.855 296.812 222.752 296.726 222.691C296.645 222.624 296.53 222.581 296.381 222.564C296.236 222.54 296.064 222.526 295.864 222.523C295.675 222.523 295.489 222.511 295.307 222.488C295.129 222.459 294.965 222.415 294.814 222.354C294.669 222.293 294.546 222.206 294.446 222.093C294.345 221.976 294.278 221.822 294.246 221.634C294.207 221.408 294.233 221.196 294.323 220.997C294.412 220.793 294.558 220.622 294.761 220.485C294.969 220.341 295.225 220.243 295.529 220.191C295.97 220.116 296.342 220.16 296.645 220.324C296.948 220.488 297.156 220.757 297.269 221.132L296.506 221.263C296.455 221.088 296.353 220.965 296.2 220.894C296.047 220.818 295.857 220.799 295.632 220.838C295.406 220.876 295.241 220.95 295.135 221.06C295.03 221.17 294.99 221.298 295.015 221.445C295.031 221.54 295.08 221.618 295.16 221.679C295.241 221.741 295.352 221.787 295.492 221.817C295.636 221.841 295.809 221.857 296.01 221.866C296.297 221.871 296.558 221.894 296.791 221.935C297.025 221.976 297.22 222.061 297.378 222.191C297.535 222.32 297.638 222.527 297.686 222.81C297.734 223.055 297.708 223.284 297.609 223.495C297.516 223.705 297.36 223.883 297.142 224.029C296.929 224.173 296.663 224.273 296.343 224.327Z" fill="white"/>
<g filter="url(#filter1_d_119_6)">
<rect x="97.1692" y="68.9192" width="229.353" height="70.6479" rx="35.324" fill="white" stroke="#CBCBCB" stroke-width="0.818781"/>
<path d="M140.297 91.1204C141.413 91.1203 142.486 91.5466 143.298 92.312C144.11 93.0775 144.598 94.1242 144.664 95.238L144.671 95.4946V110.075H145.765C146.708 110.075 147.485 110.793 147.579 111.711L147.587 111.898V114.45C147.587 115.565 147.161 116.639 146.396 117.451C145.63 118.263 144.584 118.751 143.47 118.817L143.213 118.824H128.632C127.517 118.824 126.443 118.398 125.631 117.632C124.819 116.867 124.331 115.82 124.265 114.706L124.258 114.45V99.8689H121.706C121.255 99.8691 120.82 99.7019 120.485 99.3997C120.15 99.0975 119.939 98.6817 119.893 98.2329L119.884 98.0463V95.4946C119.884 94.3789 120.31 93.3053 121.075 92.4935C121.841 91.6817 122.888 91.1931 124.001 91.1277L124.258 91.1204H140.297ZM144.671 112.992H131.548V114.45C131.548 114.96 131.461 115.451 131.301 115.908H143.213C143.6 115.908 143.971 115.754 144.244 115.481C144.518 115.207 144.671 114.836 144.671 114.45V112.992ZM134.465 104.243H131.548C131.177 104.244 130.819 104.386 130.549 104.641C130.279 104.896 130.116 105.245 130.095 105.616C130.073 105.987 130.193 106.352 130.432 106.637C130.67 106.922 131.009 107.105 131.378 107.149L131.548 107.159H134.465C134.836 107.159 135.194 107.017 135.464 106.761C135.734 106.506 135.897 106.158 135.919 105.787C135.94 105.416 135.82 105.05 135.581 104.765C135.343 104.48 135.004 104.297 134.635 104.253L134.465 104.243ZM137.381 98.4108H131.548C131.162 98.4108 130.791 98.5644 130.517 98.8378C130.244 99.1113 130.09 99.4822 130.09 99.8689C130.09 100.256 130.244 100.626 130.517 100.9C130.791 101.173 131.162 101.327 131.548 101.327H137.381C137.768 101.327 138.138 101.173 138.412 100.9C138.685 100.626 138.839 100.256 138.839 99.8689C138.839 99.4822 138.685 99.1113 138.412 98.8378C138.138 98.5644 137.768 98.4108 137.381 98.4108ZM124.258 94.0365C123.871 94.0365 123.5 94.1902 123.227 94.4636C122.954 94.737 122.8 95.1079 122.8 95.4946V96.9527H124.258V94.0365Z" fill="#4B322D"/>
<rect x="169.212" y="99.0679" width="78.3669" height="10.8432" rx="5.42161" fill="#D9D9D9"/>
<rect x="251.029" y="99.0679" width="11.829" height="10.8432" rx="5.42161" fill="#D9D9D9"/>
<path d="M316.314 109.398L316.28 109.431C315.473 110.238 315.464 111.545 316.261 112.363L321.118 117.351C321.893 118.147 323.189 118.093 323.895 117.235L332.96 106.228C333.696 105.334 333.564 104.012 332.665 103.281L332.558 103.194C331.667 102.47 330.357 102.602 329.628 103.491L323.788 110.613C323.018 111.552 321.612 111.638 320.734 110.799L319.23 109.364C318.41 108.581 317.115 108.596 316.314 109.398Z" fill="white"/>
</g>
<rect x="81.4807" y="70.5215" width="85.8516" height="18.7292" rx="9.3646" transform="rotate(-15 81.4807 70.5215)" fill="#D45303"/>
<path d="M94.7196 71.2471C95.5773 71.0173 96.3714 70.9826 97.1018 71.143C97.8378 71.2936 98.4626 71.6314 98.9759 72.1564C99.495 72.6717 99.8642 73.3388 100.084 74.1579C100.303 74.977 100.316 75.7356 100.122 76.4336C99.9358 77.1295 99.5616 77.7267 98.9994 78.2251C98.443 78.7138 97.7358 79.0731 96.8781 79.3029L94.2469 80.0079L92.0884 71.9521L94.7196 71.2471ZM96.5893 78.2249C97.532 77.9723 98.1862 77.5237 98.5518 76.8791C98.9174 76.2345 98.976 75.4486 98.7276 74.5213C98.477 73.5863 98.0302 72.9233 97.3871 72.5325C96.744 72.1416 95.9511 72.0725 95.0084 72.3251L93.6986 72.676L95.2795 78.5759L96.5893 78.2249ZM105.263 77.168C104.66 77.3295 104.079 77.3402 103.52 77.2002C102.959 77.0525 102.473 76.7686 102.062 76.3486C101.649 75.9208 101.355 75.3786 101.179 74.7217C101.005 74.0726 100.994 73.4586 101.145 72.8797C101.296 72.3008 101.583 71.8099 102.005 71.4069C102.427 71.004 102.943 70.7207 103.554 70.5571C104.164 70.3935 104.753 70.3807 105.32 70.5187C105.887 70.6566 106.381 70.9384 106.801 71.3641C107.222 71.7898 107.519 72.3271 107.693 72.9762C107.867 73.6253 107.874 74.2404 107.715 74.8213C107.556 75.4023 107.259 75.9002 106.823 76.3151C106.394 76.7201 105.874 77.0044 105.263 77.168ZM104.956 76.0205C105.296 75.9294 105.591 75.7633 105.841 75.5224C106.099 75.2793 106.277 74.9707 106.375 74.5965C106.474 74.2222 106.461 73.8033 106.337 73.3396C106.213 72.876 106.019 72.5096 105.757 72.2404C105.492 71.9634 105.191 71.7832 104.854 71.6996C104.517 71.616 104.178 71.6197 103.838 71.7108C103.498 71.8019 103.203 71.968 102.953 72.2089C102.71 72.4478 102.548 72.7523 102.465 73.1224C102.38 73.4848 102.399 73.8978 102.523 74.3614C102.708 75.0492 103.024 75.5358 103.474 75.8213C103.928 76.0969 104.422 76.1633 104.956 76.0205ZM108.559 72.7443C108.383 72.0874 108.36 71.4765 108.49 70.9116C108.626 70.3368 108.893 69.8511 109.292 69.4543C109.691 69.0575 110.196 68.7774 110.806 68.6138C111.579 68.4068 112.266 68.4214 112.868 68.6577C113.475 68.8842 113.959 69.3137 114.319 69.9461L112.893 70.3281C112.692 70.0424 112.441 69.8448 112.138 69.7354C111.835 69.626 111.491 69.623 111.104 69.7266C110.564 69.8715 110.183 70.1806 109.962 70.654C109.746 71.1175 109.731 71.6931 109.915 72.3809C110.099 73.0686 110.402 73.5632 110.822 73.8647C111.25 74.1641 111.734 74.2413 112.275 74.0964C113.04 73.8914 113.456 73.4197 113.524 72.6811L114.949 72.2991C114.938 72.9979 114.729 73.6088 114.322 74.1318C113.914 74.6471 113.331 75.0062 112.574 75.2091C111.963 75.3727 111.386 75.3824 110.842 75.2383C110.296 75.0864 109.822 74.7994 109.419 74.3773C109.021 73.9454 108.735 73.4011 108.559 72.7443ZM120.879 66.0266L122.591 72.4133L121.269 72.7674L121.067 72.0139C120.929 72.3326 120.711 72.6147 120.412 72.8604C120.119 73.0962 119.783 73.2649 119.405 73.3663C118.902 73.5009 118.422 73.5177 117.965 73.4168C117.515 73.3137 117.119 73.0885 116.777 72.741C116.443 72.3915 116.199 71.927 116.044 71.3474L115.037 67.5919L116.347 67.241L117.301 70.7994C117.454 71.3713 117.715 71.7734 118.084 72.0059C118.45 72.2307 118.881 72.2768 119.375 72.1443C119.87 72.0118 120.22 71.7565 120.425 71.3785C120.636 70.9908 120.665 70.5109 120.511 69.9391L119.558 66.3807L120.879 66.0266ZM130.326 63.3835C130.828 63.2489 131.304 63.2332 131.754 63.3362C132.212 63.4372 132.608 63.6624 132.942 64.0119C133.283 64.3594 133.532 64.8229 133.687 65.4024L134.696 69.1695L133.387 69.5205L132.43 65.9504C132.277 65.3786 132.017 64.9803 131.65 64.7555C131.281 64.523 130.85 64.4731 130.355 64.6056C129.861 64.7381 129.508 64.9982 129.297 65.386C129.092 65.764 129.066 66.2389 129.219 66.8107L130.176 70.3808L128.866 70.7317L127.91 67.1617C127.756 66.5899 127.496 66.1916 127.13 65.9668C126.761 65.7343 126.329 65.6843 125.835 65.8169C125.34 65.9494 124.988 66.2095 124.777 66.5973C124.572 66.9753 124.546 67.4502 124.699 68.022L125.655 71.5921L124.334 71.9461L122.623 65.5594L123.944 65.2054L124.14 65.9356C124.286 65.6149 124.505 65.3366 124.798 65.1008C125.091 64.8649 125.427 64.6962 125.805 64.5948C126.315 64.4581 126.8 64.4442 127.26 64.5529C127.72 64.6616 128.113 64.8917 128.439 65.2433C128.529 64.8051 128.748 64.4191 129.098 64.0853C129.445 63.7438 129.855 63.5098 130.326 63.3835ZM141.334 63.8007C141.398 64.0403 141.441 64.2608 141.461 64.4622L136.582 65.7698C136.757 66.2694 137.056 66.6283 137.479 66.8463C137.902 67.0642 138.36 67.107 138.855 66.9745C139.566 66.784 139.988 66.3519 140.122 65.6782L141.548 65.2962C141.512 65.9352 141.29 66.5124 140.882 67.0277C140.479 67.5332 139.902 67.8864 139.153 68.0872C138.542 68.2508 137.958 68.2626 137.398 68.1226C136.845 67.9727 136.362 67.6878 135.952 67.2678C135.547 66.838 135.256 66.2947 135.08 65.6379C134.904 64.981 134.881 64.3701 135.012 63.8052C135.147 63.2304 135.419 62.7436 135.825 62.3448C136.24 61.9439 136.76 61.6596 137.386 61.4919C137.988 61.3304 138.561 61.3178 139.102 61.4543C139.644 61.5907 140.111 61.8633 140.502 62.272C140.891 62.6729 141.168 63.1825 141.334 63.8007ZM139.843 63.753C139.704 63.2683 139.426 62.9246 139.007 62.7221C138.589 62.5195 138.128 62.4856 137.626 62.6202C137.17 62.7423 136.819 62.9937 136.573 63.3743C136.325 63.7472 136.237 64.1892 136.307 64.7003L139.843 63.753ZM145.015 59.4477C145.517 59.3131 145.993 59.2973 146.443 59.4003C146.901 59.5013 147.297 59.7266 147.631 60.0761C147.964 60.4256 148.209 60.8901 148.364 61.4697L149.374 65.2368L148.064 65.5877L147.107 62.0177C146.954 61.4458 146.694 61.0475 146.327 60.8228C145.959 60.5903 145.527 60.5403 145.033 60.6728C144.538 60.8053 144.185 61.0655 143.974 61.4533C143.769 61.8312 143.743 62.3061 143.897 62.878L144.853 66.448L143.532 66.8021L141.82 60.4154L143.142 60.0613L143.338 60.7916C143.483 60.4709 143.703 60.1926 143.996 59.9567C144.297 59.7188 144.636 59.5491 145.015 59.4477ZM151.178 59.0633L152.126 62.5986C152.19 62.8382 152.29 62.9975 152.428 63.0767C152.57 63.1461 152.777 63.1446 153.048 63.0721L153.859 62.8547L154.154 63.9559L153.111 64.2354C152.516 64.3948 152.023 64.3779 151.631 64.1846C151.24 63.9913 150.96 63.5817 150.793 62.9558L149.845 59.4205L149.092 59.6224L148.803 58.5444L149.557 58.3425L149.131 56.7545L150.464 56.3974L150.89 57.9854L152.443 57.5692L152.732 58.6471L151.178 59.0633Z" fill="white"/>
<path d="M298.6 39.6826C299.02 38.7328 300.409 38.8745 300.628 39.8894L301.548 44.1512C301.646 44.6051 302.025 44.9443 302.487 44.9914L306.824 45.4337C307.857 45.539 308.152 46.9045 307.254 47.4264L303.485 49.6181C303.084 49.8515 302.879 50.3168 302.976 50.7706L303.896 55.0325C304.115 56.0474 302.908 56.7496 302.134 56.0573L298.885 53.15C298.539 52.8403 298.033 52.7887 297.631 53.0221L293.862 55.2138C292.965 55.7357 291.924 54.8042 292.343 53.8544L294.104 49.8659C294.292 49.4412 294.184 48.944 293.838 48.6344L290.589 45.7271C289.815 45.0347 290.38 43.7568 291.413 43.8621L295.75 44.3044C296.212 44.3515 296.652 44.0958 296.839 43.6711L298.6 39.6826Z" fill="#4B322D"/>
<path d="M47.8231 202.684C47.9049 201.124 49.9348 200.58 50.7855 201.89L54.3579 207.391C54.7383 207.977 55.4527 208.251 56.1274 208.07L62.4631 206.373C63.9718 205.968 65.1164 207.731 64.1334 208.945L60.0056 214.042C59.566 214.585 59.526 215.349 59.9064 215.935L63.4788 221.436C64.3295 222.746 63.0069 224.379 61.5488 223.82L55.4252 221.469C54.7731 221.219 54.034 221.417 53.5944 221.959L49.4666 227.057C48.4836 228.271 46.5216 227.518 46.6034 225.958L46.9467 219.408C46.9832 218.71 46.5664 218.068 45.9143 217.818L39.7908 215.467C38.3326 214.908 38.4426 212.809 39.9513 212.405L46.287 210.707C46.9617 210.526 47.4433 209.932 47.4798 209.234L47.8231 202.684Z" fill="#EC705C"/>
<path fill-rule="evenodd" clip-rule="evenodd" d="M318.685 140.658C321.32 140.658 323.929 140.139 326.364 139.131C328.798 138.122 331.01 136.644 332.873 134.781C334.737 132.918 336.215 130.706 337.223 128.271C338.231 125.837 338.75 123.228 338.75 120.593C338.75 117.958 338.231 115.348 337.223 112.914C336.215 110.48 334.737 108.268 332.873 106.404C331.01 104.541 328.798 103.063 326.364 102.055C323.929 101.046 321.32 100.527 318.685 100.527C313.364 100.527 308.26 102.641 304.497 106.404C300.734 110.167 298.62 115.271 298.62 120.593C298.62 125.914 300.734 131.018 304.497 134.781C308.26 138.544 313.364 140.658 318.685 140.658ZM318.168 128.708L329.315 115.331L325.891 112.477L316.304 123.979L311.343 119.016L308.191 122.169L314.879 128.857L316.605 130.583L318.168 128.708Z" fill="#446358"/>
<path d="M309.128 119.765L309.087 119.806C308.101 120.792 308.091 122.387 309.063 123.386L314.995 129.478C315.942 130.451 317.524 130.385 318.388 129.337L329.459 115.893C330.358 114.802 330.196 113.187 329.099 112.295L328.968 112.189C327.879 111.304 326.279 111.466 325.39 112.551L318.257 121.249C317.317 122.396 315.599 122.501 314.526 121.476L312.69 119.724C311.689 118.768 310.107 118.786 309.128 119.765Z" fill="white"/>
<defs>
<filter id="filter0_d_119_6" x="66.9299" y="133.804" width="231.489" height="88.1494" filterUnits="userSpaceOnUse" color-interpolation-filters="sRGB">
<feFlood flood-opacity="0" result="BackgroundImageFix"/>
<feColorMatrix in="SourceAlpha" type="matrix" values="0 0 0 0 0 0 0 0 0 0 0 0 0 0 0 0 0 0 127 0" result="hardAlpha"/>
<feOffset dx="1.63756" dy="6.55025"/>
<feComposite in2="hardAlpha" operator="out"/>
<feColorMatrix type="matrix" values="0 0 0 0 0 0 0 0 0 0 0 0 0 0 0 0 0 0 0.1 0"/>
<feBlend mode="normal" in2="BackgroundImageFix" result="effect1_dropShadow_119_6"/>
<feBlend mode="normal" in="SourceGraphic" in2="effect1_dropShadow_119_6" result="shape"/>
</filter>
<filter id="filter1_d_119_6" x="94.3034" y="68.5098" width="239.133" height="79.6546" filterUnits="userSpaceOnUse" color-interpolation-filters="sRGB">
<feFlood flood-opacity="0" result="BackgroundImageFix"/>
<feColorMatrix in="SourceAlpha" type="matrix" values="0 0 0 0 0 0 0 0 0 0 0 0 0 0 0 0 0 0 127 0" result="hardAlpha"/>
<feOffset dx="-2.45634" dy="8.18781"/>
<feComposite in2="hardAlpha" operator="out"/>
<feColorMatrix type="matrix" values="0 0 0 0 0 0 0 0 0 0 0 0 0 0 0 0 0 0 0.1 0"/>
<feBlend mode="normal" in2="BackgroundImageFix" result="effect1_dropShadow_119_6"/>
<feBlend mode="normal" in="SourceGraphic" in2="effect1_dropShadow_119_6" result="shape"/>
</filter>
<linearGradient id="paint0_linear_119_6" x1="105.558" y1="129.277" x2="280.142" y2="214.171" gradientUnits="userSpaceOnUse">
<stop stop-color="#724F48"/>
<stop offset="1" stop-color="#4B322D"/>
</linearGradient>
<linearGradient id="paint1_linear_119_6" x1="298.913" y1="138.734" x2="312.324" y2="217.051" gradientUnits="userSpaceOnUse">
<stop stop-color="#FDD974"/>
<stop offset="1" stop-color="#FF6200"/>
</linearGradient>
<linearGradient id="paint2_linear_119_6" x1="302.841" y1="161.67" x2="312.325" y2="217.051" gradientUnits="userSpaceOnUse">
<stop stop-color="#FECE52"/>
<stop offset="1" stop-color="#FFC42D"/>
</linearGradient>
</defs>
</svg>
