<svg width="587" height="393" viewBox="0 0 587 393" fill="none" xmlns="http://www.w3.org/2000/svg">
<path d="M355.38 74.633C356.125 72.4147 359.36 72.7446 359.641 75.0676L361.251 88.3599C361.434 89.8654 363.051 90.7372 364.409 90.0617L376.397 84.098C378.492 83.0557 380.547 85.5768 379.103 87.4183L370.842 97.9559C369.907 99.1494 370.434 100.91 371.872 101.392L384.566 105.652C386.784 106.396 386.454 109.632 384.131 109.913L370.839 111.523C369.333 111.705 368.461 113.323 369.137 114.681L375.101 126.669C376.143 128.764 373.622 130.818 371.78 129.375L361.243 121.114C360.049 120.178 358.289 120.706 357.807 122.143L353.547 134.837C352.802 137.056 349.567 136.726 349.286 134.403L347.676 121.11C347.493 119.605 345.876 118.733 344.518 119.409L332.53 125.372C330.435 126.415 328.38 123.894 329.824 122.052L338.085 111.514C339.02 110.321 338.493 108.561 337.055 108.078L324.361 103.818C322.143 103.074 322.473 99.8386 324.796 99.5572L338.088 97.9472C339.594 97.7648 340.466 96.1474 339.79 94.7896L333.826 82.8015C332.784 80.7065 335.305 78.652 337.147 80.0957L347.684 88.3563C348.878 89.2919 350.638 88.7646 351.12 87.3269L355.38 74.633Z" fill="#E1DCD0"/>
<path d="M99.1799 106.905C91.6742 109.428 74.0627 122.271 87.3049 125.551C88.3061 125.799 89.3213 125.97 90.3438 126.074M99.1799 106.905C99.7486 106.714 100.259 106.582 100.694 106.518L99.1799 106.905ZM90.3438 126.074C100.961 127.149 112.369 120.92 117.095 117.355C119.363 115.645 122.197 112.913 123.922 109.903M90.3438 126.074C87.1518 128.582 82.4044 134.962 88.9518 140.417C89.3135 140.719 89.71 140.991 90.1379 141.234M123.922 109.903C126.138 106.035 126.522 101.707 121.518 98.4978C110.396 91.3641 87.5509 104.543 79.7826 110.055C72.0143 115.567 64.7818 99.2342 59.8745 87.6911C54.9672 76.148 44.6192 62.7203 39.3455 70.5024C34.0719 78.2845 38.3445 84.2174 59.3006 136.708C74.1861 173.994 75.6757 194.728 74.2762 202.583C74.0222 204.009 74.4464 205.564 75.6541 206.363C94.8363 219.052 114.269 212.351 123.358 206.297C124.472 205.554 124.878 204.143 124.458 202.871C117.236 180.978 117.733 167.527 119.201 164.003M123.922 109.903L126.18 114.555C127.012 116.269 127.304 118.22 126.759 120.047C126.273 121.679 125.662 123.225 124.947 124.684M90.1379 141.234C87.7403 144.487 85.2067 151.635 94.253 154.206C103.266 156.768 119.963 149.185 126.438 139.974M90.1379 141.234C98.1977 145.815 117.398 140.091 124.947 124.684M124.947 124.684L128.106 130.828C128.759 132.099 129.158 133.527 128.831 134.919C128.43 136.623 127.598 138.325 126.438 139.974M95.9271 154.786C94.9014 158.649 95.2001 166.627 104.601 167.634C116.134 168.869 135.243 156.701 130.132 144.264C129.939 143.793 129.638 143.369 129.289 142.999L126.438 139.974" stroke="black" stroke-width="4.35709"/>
<path d="M66.9746 30.1011C66.7211 28.7737 68.3268 27.9488 69.259 28.8565L69.3466 28.9497L76.946 37.7031C77.6439 38.507 78.6938 38.9057 79.7413 38.7766L79.9505 38.7446L91.3361 36.5674C92.6638 36.3136 93.4892 37.9191 92.5817 38.8514L92.4876 38.9394L83.7342 46.5388C82.9305 47.2367 82.5325 48.2864 82.6615 49.3337L82.6936 49.5429L84.8707 60.9286C85.1246 62.2561 83.519 63.0815 82.5868 62.1741L82.4988 62.08L74.8994 53.3266C74.2015 52.5229 73.1518 52.125 72.1044 52.2539L71.8944 52.2864L60.5087 54.4636C59.1813 54.7171 58.3565 53.1114 59.2641 52.1792L59.3572 52.0916L68.1107 44.4922C68.9146 43.7943 69.3132 42.7443 69.1842 41.6968L69.1518 41.4868L66.9746 30.1011Z" fill="#FFCA00" stroke="black" stroke-width="1.82071"/>
<path d="M108.539 51.8725C108.233 51.273 108.855 50.6549 109.431 50.9009L109.546 50.962L115.561 54.8398C116.153 55.2213 116.894 55.2803 117.535 55.0046L117.662 54.9452L124.036 51.6892C124.635 51.383 125.253 52.0053 125.007 52.5815L124.946 52.696L121.068 58.7115C120.687 59.3035 120.628 60.044 120.904 60.6855L120.963 60.8122L124.219 67.1858C124.525 67.7853 123.903 68.4033 123.327 68.1574L123.212 68.0964L117.197 64.2185C116.605 63.837 115.864 63.7781 115.223 64.0537L115.096 64.1131L108.722 67.3691C108.123 67.6753 107.505 67.0531 107.751 66.4768L107.812 66.3624L111.69 60.3468C112.071 59.7548 112.13 59.0143 111.855 58.3728L111.795 58.2461L108.539 51.8725Z" fill="#FFCA00" stroke="black" stroke-width="1.40523"/>
<g filter="url(#filter0_d_119_6)">
<rect x="114.402" y="219.049" width="381.552" height="117.904" rx="58.9522" transform="rotate(3.65955 114.402 219.049)" fill="url(#paint0_linear_119_6)" stroke="#3E211C" stroke-width="0.818781"/>
<rect x="244.313" y="262.01" width="130.186" height="22.1294" rx="6.55025" transform="rotate(2.48987 244.313 262.01)" fill="#D9D9D9"/>
<rect x="243.166" y="295.191" width="99.8612" height="18.5619" rx="6.55025" transform="rotate(2.48987 243.166 295.191)" fill="#D9D9D9"/>
<circle cx="182.179" cy="284.527" r="39.7109" fill="#FECD4F"/>
<path d="M172.27 261.856C176.69 254.255 187.669 254.255 192.089 261.856L195.256 267.303C196.255 269.021 197.685 270.451 199.403 271.45L204.85 274.617C212.451 279.037 212.451 290.016 204.85 294.436L199.403 297.603C197.685 298.603 196.255 300.032 195.256 301.75L192.089 307.197C187.669 314.798 176.69 314.798 172.27 307.197L169.103 301.75C168.103 300.032 166.674 298.603 164.956 297.603L159.509 294.436C151.908 290.016 151.908 279.037 159.509 274.617L164.956 271.45C166.674 270.451 168.103 269.021 169.103 267.303L172.27 261.856Z" fill="white"/>
</g>
<path d="M433.885 250.586C433.006 245.453 436.454 240.58 441.587 239.701L464.013 235.861C465.16 235.664 466.334 235.682 467.475 235.913L494.74 241.432C495.881 241.663 497.055 241.681 498.203 241.484L551.296 232.392C556.428 231.513 561.301 234.961 562.18 240.094L579.368 340.459C580.247 345.591 576.799 350.464 571.666 351.343L463.867 369.804C458.734 370.683 453.861 367.235 452.982 362.102L433.885 250.586Z" fill="url(#paint1_linear_119_6)"/>
<rect x="448.99" y="266.174" width="105.597" height="55.6272" rx="7.54267" transform="rotate(-9.71769 448.99 266.174)" fill="white"/>
<path d="M437.157 287.602C436.288 283.421 439.06 279.353 443.269 278.632L472.274 273.665L501.547 268.652L563.307 258.076C567.604 257.34 571.629 260.39 572.082 264.727L580.226 342.727C580.639 346.679 577.915 350.274 573.998 350.944L461.751 370.167C457.747 370.852 453.919 368.244 453.093 364.267L437.157 287.602Z" fill="url(#paint2_linear_119_6)"/>
<path d="M461.499 355.368L461.148 353.323L458.738 350.173L459.627 350.02L461.547 352.671L461.35 352.705L462.271 349.568L463.152 349.417L461.935 353.188L462.285 355.233L461.499 355.368ZM465.903 354.711C465.53 354.775 465.18 354.746 464.851 354.624C464.528 354.501 464.253 354.3 464.027 354.02C463.806 353.734 463.66 353.387 463.59 352.978C463.518 352.558 463.542 352.179 463.662 351.84C463.781 351.495 463.975 351.211 464.245 350.987C464.514 350.763 464.835 350.619 465.207 350.555C465.585 350.49 465.935 350.519 466.259 350.642C466.582 350.765 466.854 350.966 467.075 351.247C467.301 351.527 467.45 351.877 467.522 352.296C467.594 352.716 467.569 353.095 467.449 353.434C467.334 353.772 467.142 354.053 466.873 354.278C466.604 354.502 466.28 354.646 465.903 354.711ZM465.787 354.035C466.002 353.998 466.187 353.912 466.342 353.778C466.502 353.642 466.618 353.463 466.687 353.241C466.762 353.012 466.772 352.743 466.719 352.434C466.666 352.124 466.57 351.876 466.43 351.69C466.289 351.498 466.121 351.365 465.924 351.29C465.733 351.215 465.533 351.195 465.323 351.231C465.113 351.267 464.928 351.353 464.768 351.488C464.608 351.624 464.49 351.806 464.416 352.034C464.346 352.257 464.338 352.523 464.391 352.832C464.444 353.142 464.541 353.392 464.681 353.584C464.827 353.77 464.995 353.9 465.186 353.976C465.382 354.05 465.582 354.07 465.787 354.035ZM470.258 353.965C469.949 354.018 469.668 354.002 469.415 353.915C469.168 353.828 468.96 353.669 468.791 353.439C468.628 353.208 468.513 352.901 468.447 352.518L468.045 350.166L468.831 350.031L469.219 352.297C469.283 352.669 469.412 352.936 469.607 353.097C469.802 353.258 470.052 353.312 470.356 353.26C470.56 353.225 470.736 353.144 470.881 353.016C471.032 352.888 471.138 352.721 471.2 352.516C471.262 352.311 471.27 352.073 471.223 351.8L470.861 349.684L471.648 349.549L472.327 353.514L471.626 353.634L471.456 352.967C471.376 353.229 471.233 353.447 471.025 353.623C470.818 353.799 470.562 353.913 470.258 353.965ZM473.404 353.329L472.725 349.365L473.433 349.243L473.631 349.979C473.69 349.785 473.78 349.616 473.901 349.471C474.021 349.321 474.169 349.195 474.347 349.095C474.529 348.993 474.743 348.922 474.99 348.879L475.133 349.713L474.849 349.762C474.687 349.79 474.536 349.837 474.396 349.904C474.256 349.966 474.136 350.054 474.036 350.168C473.942 350.282 473.878 350.425 473.843 350.598C473.808 350.772 473.811 350.979 473.852 351.22L474.19 353.195L473.404 353.329ZM478.46 352.464L477.517 346.957L479.208 346.667C479.848 346.558 480.397 346.58 480.855 346.733C481.313 346.887 481.677 347.154 481.948 347.534C482.222 347.908 482.408 348.378 482.505 348.945C482.602 349.511 482.583 350.016 482.449 350.461C482.319 350.904 482.064 351.274 481.683 351.571C481.307 351.863 480.796 352.063 480.151 352.174L478.46 352.464ZM479.133 351.668L480.006 351.518C480.515 351.431 480.904 351.278 481.175 351.059C481.445 350.84 481.616 350.565 481.689 350.234C481.767 349.897 481.768 349.514 481.695 349.084C481.62 348.648 481.49 348.284 481.305 347.992C481.126 347.699 480.872 347.494 480.544 347.378C480.217 347.261 479.798 347.246 479.29 347.333L478.416 347.483L479.133 351.668ZM485.708 351.319C485.336 351.383 484.985 351.354 484.657 351.232C484.333 351.109 484.059 350.908 483.832 350.628C483.611 350.342 483.465 349.995 483.395 349.586C483.323 349.166 483.347 348.787 483.467 348.448C483.586 348.104 483.781 347.819 484.05 347.595C484.319 347.371 484.64 347.227 485.012 347.163C485.39 347.098 485.74 347.127 486.064 347.25C486.387 347.373 486.659 347.575 486.88 347.855C487.106 348.135 487.255 348.485 487.327 348.904C487.399 349.324 487.375 349.703 487.254 350.042C487.14 350.381 486.948 350.662 486.678 350.886C486.409 351.11 486.086 351.255 485.708 351.319ZM485.592 350.643C485.807 350.606 485.992 350.52 486.147 350.386C486.308 350.25 486.423 350.071 486.493 349.849C486.567 349.62 486.577 349.351 486.524 349.042C486.471 348.732 486.375 348.484 486.235 348.298C486.094 348.106 485.926 347.973 485.729 347.899C485.538 347.823 485.338 347.804 485.128 347.84C484.918 347.876 484.733 347.961 484.573 348.097C484.413 348.232 484.295 348.414 484.221 348.643C484.151 348.865 484.143 349.131 484.196 349.441C484.249 349.75 484.346 350.001 484.487 350.193C484.632 350.378 484.8 350.509 484.991 350.584C485.187 350.658 485.388 350.678 485.592 350.643ZM490.441 350.509C490.058 350.574 489.702 350.546 489.374 350.424C489.044 350.297 488.766 350.094 488.54 349.814C488.32 349.533 488.174 349.189 488.104 348.779C488.033 348.365 488.055 347.989 488.17 347.651C488.289 347.306 488.483 347.022 488.753 346.798C489.021 346.568 489.347 346.421 489.73 346.355C490.212 346.273 490.637 346.329 491.006 346.525C491.374 346.721 491.639 347.027 491.802 347.442L490.984 347.582C490.892 347.36 490.741 347.202 490.531 347.109C490.326 347.014 490.094 346.989 489.837 347.033C489.628 347.069 489.443 347.157 489.284 347.298C489.123 347.433 489.006 347.616 488.932 347.844C488.862 348.067 488.853 348.33 488.905 348.634C488.944 348.86 489.01 349.056 489.103 349.224C489.196 349.386 489.305 349.519 489.43 349.621C489.561 349.723 489.703 349.793 489.855 349.832C490.007 349.865 490.161 349.869 490.318 349.842C490.492 349.812 490.642 349.759 490.769 349.683C490.901 349.601 491.004 349.497 491.08 349.371C491.161 349.244 491.207 349.101 491.217 348.943L492.035 348.803C492.018 349.237 491.869 349.611 491.588 349.924C491.306 350.231 490.923 350.426 490.441 350.509ZM494.728 349.775C494.393 349.832 494.089 349.827 493.819 349.76C493.548 349.693 493.323 349.573 493.142 349.399C492.961 349.224 492.831 349.006 492.754 348.744L493.557 348.607C493.604 348.728 493.674 348.835 493.765 348.927C493.862 349.019 493.981 349.085 494.123 349.125C494.27 349.165 494.436 349.169 494.619 349.137C494.792 349.108 494.93 349.06 495.032 348.994C495.138 348.922 495.21 348.839 495.249 348.746C495.286 348.648 495.296 348.549 495.279 348.45C495.254 348.303 495.198 348.199 495.112 348.138C495.03 348.071 494.915 348.029 494.766 348.011C494.622 347.987 494.449 347.974 494.249 347.97C494.06 347.97 493.875 347.959 493.693 347.936C493.515 347.907 493.351 347.862 493.2 347.801C493.055 347.74 492.932 347.653 492.831 347.541C492.73 347.423 492.664 347.27 492.631 347.081C492.593 346.856 492.618 346.643 492.708 346.444C492.798 346.24 492.944 346.069 493.147 345.932C493.355 345.788 493.61 345.691 493.915 345.639C494.355 345.563 494.727 345.607 495.031 345.771C495.334 345.935 495.542 346.205 495.655 346.579L494.892 346.71C494.84 346.535 494.738 346.413 494.586 346.341C494.432 346.265 494.243 346.246 494.017 346.285C493.792 346.324 493.626 346.398 493.521 346.508C493.416 346.617 493.376 346.746 493.401 346.893C493.417 346.987 493.465 347.065 493.546 347.127C493.627 347.189 493.737 347.234 493.877 347.264C494.022 347.288 494.195 347.305 494.396 347.313C494.683 347.318 494.943 347.341 495.177 347.382C495.411 347.423 495.606 347.508 495.763 347.638C495.92 347.768 496.023 347.974 496.072 348.257C496.119 348.503 496.093 348.731 495.995 348.942C495.901 349.153 495.745 349.331 495.527 349.476C495.315 349.62 495.048 349.72 494.728 349.775Z" fill="white"/>
<g filter="url(#filter1_d_119_6)">
<rect x="160.072" y="114.22" width="381.552" height="117.904" rx="58.9522" fill="white" stroke="#CBCBCB" stroke-width="0.818781"/>
<path d="M231.988 151.373C233.842 151.372 235.625 152.081 236.974 153.352C238.322 154.624 239.134 156.363 239.243 158.213L239.255 158.639V182.862H241.071C242.639 182.862 243.93 184.053 244.085 185.579L244.099 185.889V190.128C244.099 191.982 243.391 193.765 242.12 195.114C240.848 196.462 239.109 197.274 237.259 197.383L236.833 197.395H212.61C210.757 197.395 208.973 196.687 207.625 195.415C206.276 194.144 205.464 192.405 205.356 190.555L205.344 190.128V165.906H201.105C200.355 165.906 199.632 165.629 199.075 165.127C198.519 164.624 198.168 163.934 198.091 163.188L198.077 162.878V158.639C198.077 156.786 198.785 155.002 200.057 153.654C201.328 152.305 203.067 151.493 204.917 151.385L205.344 151.373H231.988ZM239.255 187.706H217.455V190.128C217.455 190.976 217.309 191.792 217.043 192.55H236.833C237.475 192.55 238.091 192.295 238.545 191.841C239 191.387 239.255 190.771 239.255 190.128V187.706ZM222.299 173.173H217.455C216.837 173.173 216.244 173.41 215.795 173.834C215.346 174.257 215.076 174.837 215.039 175.453C215.003 176.069 215.204 176.676 215.6 177.149C215.996 177.623 216.558 177.927 217.171 178L217.455 178.017H222.299C222.917 178.016 223.51 177.78 223.959 177.356C224.408 176.932 224.678 176.353 224.715 175.737C224.751 175.12 224.55 174.514 224.154 174.04C223.758 173.567 223.196 173.262 222.583 173.19L222.299 173.173ZM227.144 163.484H217.455C216.812 163.484 216.196 163.739 215.742 164.193C215.288 164.647 215.032 165.264 215.032 165.906C215.032 166.548 215.288 167.164 215.742 167.619C216.196 168.073 216.812 168.328 217.455 168.328H227.144C227.786 168.328 228.402 168.073 228.856 167.619C229.311 167.164 229.566 166.548 229.566 165.906C229.566 165.264 229.311 164.647 228.856 164.193C228.402 163.739 227.786 163.484 227.144 163.484ZM205.344 156.217C204.701 156.217 204.085 156.472 203.631 156.926C203.177 157.381 202.921 157.997 202.921 158.639V161.061H205.344V156.217Z" fill="#4B322D"/>
<rect x="280.023" y="164.576" width="130.186" height="18.0132" rx="6.55025" fill="#D9D9D9"/>
<rect x="415.94" y="164.576" width="19.6507" height="18.0132" rx="6.55025" fill="#D9D9D9"/>
<path d="M525.347 180.783L523.376 182.754C522.568 183.561 522.56 184.868 523.356 185.686L533.335 195.935C534.111 196.731 535.406 196.677 536.113 195.819L552.931 175.397C553.667 174.504 553.535 173.181 552.636 172.451L550.314 170.564C549.422 169.84 548.112 169.972 547.384 170.861L535.868 184.905C535.098 185.844 533.691 185.93 532.813 185.091L528.264 180.749C527.444 179.966 526.149 179.981 525.347 180.783Z" fill="white"/>
</g>
<rect x="134.28" y="117.153" width="142.62" height="31.1137" rx="15.5568" transform="rotate(-15 134.28 117.153)" fill="#D45303"/>
<path d="M156.01 119.694C157.555 119.28 158.985 119.218 160.301 119.507C161.627 119.778 162.752 120.387 163.677 121.332C164.612 122.26 165.277 123.462 165.672 124.938C166.067 126.413 166.09 127.779 165.741 129.037C165.406 130.29 164.732 131.366 163.719 132.264C162.717 133.144 161.443 133.791 159.898 134.205L155.158 135.475L151.27 120.964L156.01 119.694ZM159.377 132.264C161.076 131.809 162.254 131 162.913 129.839C163.571 128.678 163.677 127.263 163.229 125.592C162.778 123.908 161.973 122.714 160.815 122.01C159.656 121.306 158.228 121.181 156.53 121.636L154.171 122.268L157.018 132.896L159.377 132.264ZM175.002 130.36C173.916 130.651 172.869 130.67 171.862 130.418C170.851 130.152 169.975 129.64 169.235 128.884C168.492 128.113 167.962 127.136 167.645 125.953C167.331 124.784 167.311 123.678 167.583 122.635C167.856 121.592 168.373 120.708 169.133 119.982C169.893 119.256 170.823 118.746 171.923 118.451C173.022 118.157 174.083 118.134 175.104 118.382C176.126 118.631 177.015 119.138 177.772 119.905C178.53 120.672 179.065 121.64 179.379 122.809C179.692 123.978 179.705 125.086 179.419 126.133C179.132 127.179 178.597 128.076 177.812 128.823C177.038 129.553 176.101 130.065 175.002 130.36ZM174.448 128.293C175.06 128.129 175.592 127.829 176.042 127.395C176.507 126.958 176.828 126.402 177.005 125.728C177.183 125.053 177.16 124.299 176.936 123.464C176.712 122.628 176.364 121.968 175.89 121.484C175.414 120.985 174.872 120.66 174.264 120.509C173.657 120.359 173.047 120.366 172.435 120.53C171.822 120.694 171.291 120.993 170.84 121.427C170.404 121.857 170.11 122.406 169.961 123.072C169.807 123.725 169.843 124.469 170.067 125.304C170.398 126.543 170.969 127.42 171.778 127.934C172.597 128.43 173.487 128.55 174.448 128.293ZM180.938 122.391C180.621 121.208 180.58 120.108 180.814 119.09C181.059 118.055 181.541 117.18 182.259 116.465C182.978 115.75 183.887 115.246 184.987 114.951C186.379 114.578 187.616 114.604 188.7 115.03C189.794 115.438 190.665 116.212 191.314 117.351L188.746 118.039C188.384 117.524 187.93 117.168 187.385 116.971C186.84 116.774 186.22 116.769 185.524 116.955C184.549 117.216 183.863 117.773 183.465 118.626C183.077 119.461 183.049 120.498 183.381 121.737C183.713 122.975 184.258 123.866 185.015 124.409C185.786 124.949 186.659 125.088 187.633 124.827C189.011 124.458 189.76 123.608 189.881 122.277L192.449 121.589C192.429 122.848 192.052 123.949 191.32 124.891C190.584 125.819 189.534 126.466 188.17 126.831C187.07 127.126 186.031 127.143 185.051 126.884C184.068 126.61 183.213 126.093 182.487 125.333C181.772 124.555 181.255 123.574 180.938 122.391ZM203.131 110.291L206.214 121.795L203.833 122.433L203.47 121.076C203.221 121.65 202.827 122.158 202.289 122.6C201.762 123.025 201.157 123.329 200.475 123.512C199.57 123.754 198.705 123.784 197.881 123.603C197.07 123.417 196.357 123.011 195.742 122.385C195.141 121.756 194.7 120.919 194.421 119.875L192.608 113.11L194.967 112.478L196.685 118.888C196.961 119.918 197.431 120.642 198.095 121.061C198.756 121.466 199.531 121.549 200.422 121.31C201.313 121.072 201.943 120.612 202.313 119.931C202.692 119.233 202.744 118.368 202.468 117.338L200.751 110.928L203.131 110.291ZM220.148 105.53C221.052 105.287 221.91 105.259 222.721 105.444C223.545 105.626 224.258 106.032 224.859 106.662C225.475 107.287 225.922 108.122 226.202 109.166L228.02 115.952L225.661 116.584L223.938 110.153C223.662 109.123 223.193 108.406 222.533 108.001C221.869 107.582 221.091 107.492 220.2 107.731C219.309 107.97 218.674 108.438 218.294 109.137C217.925 109.818 217.878 110.673 218.154 111.703L219.877 118.134L217.518 118.766L215.795 112.335C215.519 111.305 215.05 110.588 214.39 110.183C213.726 109.764 212.948 109.674 212.057 109.913C211.167 110.152 210.531 110.62 210.152 111.319C209.782 112 209.735 112.855 210.011 113.885L211.734 120.316L209.354 120.954L206.272 109.449L208.652 108.811L209.004 110.127C209.267 109.549 209.662 109.048 210.19 108.623C210.718 108.198 211.323 107.894 212.005 107.712C212.923 107.465 213.797 107.44 214.625 107.636C215.453 107.832 216.161 108.246 216.749 108.88C216.91 108.09 217.306 107.395 217.935 106.794C218.561 106.179 219.298 105.757 220.148 105.53ZM239.976 106.281C240.092 106.713 240.168 107.11 240.206 107.473L231.416 109.828C231.731 110.728 232.27 111.374 233.032 111.767C233.793 112.16 234.62 112.237 235.51 111.998C236.791 111.655 237.552 110.877 237.794 109.663L240.362 108.975C240.298 110.126 239.897 111.166 239.161 112.094C238.436 113.005 237.398 113.641 236.047 114.002C234.948 114.297 233.894 114.318 232.887 114.066C231.89 113.796 231.021 113.283 230.281 112.526C229.552 111.752 229.028 110.774 228.711 109.59C228.394 108.407 228.353 107.307 228.588 106.289C228.832 105.254 229.321 104.377 230.053 103.659C230.8 102.936 231.737 102.424 232.864 102.122C233.95 101.831 234.981 101.809 235.957 102.055C236.932 102.3 237.773 102.791 238.477 103.527C239.178 104.25 239.678 105.168 239.976 106.281ZM237.29 106.195C237.041 105.322 236.539 104.703 235.785 104.338C235.031 103.973 234.202 103.912 233.297 104.155C232.476 104.375 231.844 104.827 231.401 105.513C230.954 106.185 230.794 106.981 230.922 107.902L237.29 106.195ZM246.607 98.44C247.511 98.1976 248.369 98.1692 249.18 98.3548C250.004 98.5367 250.717 98.9424 251.318 99.5719C251.92 100.202 252.36 101.038 252.64 102.082L254.458 108.868L252.099 109.5L250.376 103.069C250.1 102.039 249.631 101.322 248.971 100.917C248.307 100.498 247.529 100.408 246.638 100.647C245.748 100.886 245.112 101.354 244.733 102.053C244.363 102.734 244.316 103.589 244.592 104.619L246.315 111.05L243.935 111.688L240.853 100.183L243.233 99.5454L243.585 100.861C243.848 100.283 244.243 99.7818 244.771 99.357C245.313 98.9284 245.924 98.6228 246.607 98.44ZM257.709 97.7477L259.415 104.116C259.531 104.547 259.712 104.834 259.959 104.977C260.217 105.102 260.589 105.099 261.076 104.969L262.538 104.577L263.069 106.561L261.19 107.064C260.118 107.351 259.23 107.321 258.525 106.973C257.82 106.625 257.316 105.887 257.014 104.759L255.308 98.3911L253.951 98.7547L253.43 96.813L254.788 96.4493L254.021 93.5889L256.422 92.9455L257.189 95.806L259.986 95.0563L260.507 96.998L257.709 97.7477Z" fill="white"/>
<path d="M495.848 63.9269C496.268 62.9771 497.657 63.1188 497.876 64.1337L499.973 73.849C500.071 74.3028 500.45 74.642 500.912 74.6891L510.8 75.6973C511.832 75.8027 512.127 77.1682 511.23 77.6901L502.638 82.6862C502.236 82.9196 502.031 83.3849 502.129 83.8388L504.225 93.5541C504.444 94.5689 503.237 95.2712 502.463 94.5788L495.056 87.9513C494.71 87.6417 494.204 87.5901 493.803 87.8235L485.211 92.8197C484.313 93.3416 483.272 92.4101 483.692 91.4603L487.706 82.3681C487.894 81.9434 487.786 81.4462 487.44 81.1366L480.034 74.5091C479.26 73.8167 479.824 72.5388 480.857 72.6441L490.745 73.6524C491.207 73.6995 491.646 73.4438 491.834 73.019L495.848 63.9269Z" fill="#4B322D"/>
<path d="M78.5384 333.43C78.6202 331.87 80.6501 331.326 81.5008 332.636L89.6444 345.176C90.0248 345.762 90.7392 346.036 91.414 345.855L105.857 341.985C107.365 341.581 108.51 343.343 107.527 344.557L98.1173 356.177C97.6777 356.72 97.6377 357.484 98.0181 358.07L106.162 370.61C107.012 371.92 105.69 373.553 104.232 372.994L90.2725 367.635C89.6204 367.385 88.8812 367.583 88.4416 368.126L79.0319 379.746C78.0489 380.96 76.087 380.207 76.1687 378.647L76.9512 363.715C76.9878 363.017 76.571 362.376 75.9189 362.125L61.9598 356.767C60.5016 356.207 60.6116 354.109 62.1203 353.704L76.5631 349.834C77.2378 349.654 77.7193 349.059 77.7559 348.361L78.5384 333.43Z" fill="#EC705C"/>
<path fill-rule="evenodd" clip-rule="evenodd" d="M528.333 233.667C532.711 233.667 537.045 232.804 541.089 231.129C545.134 229.454 548.808 226.999 551.903 223.903C554.999 220.808 557.454 217.134 559.129 213.089C560.804 209.045 561.667 204.711 561.667 200.333C561.667 195.956 560.804 191.621 559.129 187.577C557.454 183.533 554.999 179.858 551.903 176.763C548.808 173.668 545.134 171.212 541.089 169.537C537.045 167.862 532.711 167 528.333 167C519.493 167 511.014 170.512 504.763 176.763C498.512 183.014 495 191.493 495 200.333C495 209.174 498.512 217.652 504.763 223.903C511.014 230.155 519.493 233.667 528.333 233.667ZM527.474 213.815L545.992 191.593L540.304 186.852L524.378 205.959L516.137 197.715L510.9 202.952L522.011 214.063L524.878 216.93L527.474 213.815Z" fill="#446358"/>
<path d="M513.621 197.794L511.213 200.202C510.227 201.188 510.217 202.783 511.189 203.782L523.377 216.3C524.324 217.272 525.907 217.207 526.77 216.159L547.31 191.217C548.209 190.125 548.047 188.51 546.95 187.619L544.113 185.314C543.024 184.429 541.425 184.591 540.535 185.676L526.47 202.829C525.53 203.976 523.812 204.08 522.739 203.056L517.183 197.753C516.182 196.797 514.6 196.815 513.621 197.794Z" fill="white"/>
<defs>
<filter id="filter0_d_119_6" x="110.108" y="222.281" width="383.475" height="142.106" filterUnits="userSpaceOnUse" color-interpolation-filters="sRGB">
<feFlood flood-opacity="0" result="BackgroundImageFix"/>
<feColorMatrix in="SourceAlpha" type="matrix" values="0 0 0 0 0 0 0 0 0 0 0 0 0 0 0 0 0 0 127 0" result="hardAlpha"/>
<feOffset dx="1.63756" dy="6.55025"/>
<feComposite in2="hardAlpha" operator="out"/>
<feColorMatrix type="matrix" values="0 0 0 0 0 0 0 0 0 0 0 0 0 0 0 0 0 0 0.1 0"/>
<feBlend mode="normal" in2="BackgroundImageFix" result="effect1_dropShadow_119_6"/>
<feBlend mode="normal" in="SourceGraphic" in2="effect1_dropShadow_119_6" result="shape"/>
</filter>
<filter id="filter1_d_119_6" x="157.206" y="113.811" width="396.201" height="126.911" filterUnits="userSpaceOnUse" color-interpolation-filters="sRGB">
<feFlood flood-opacity="0" result="BackgroundImageFix"/>
<feColorMatrix in="SourceAlpha" type="matrix" values="0 0 0 0 0 0 0 0 0 0 0 0 0 0 0 0 0 0 127 0" result="hardAlpha"/>
<feOffset dx="-2.45634" dy="8.18781"/>
<feComposite in2="hardAlpha" operator="out"/>
<feColorMatrix type="matrix" values="0 0 0 0 0 0 0 0 0 0 0 0 0 0 0 0 0 0 0.1 0"/>
<feBlend mode="normal" in2="BackgroundImageFix" result="effect1_dropShadow_119_6"/>
<feBlend mode="normal" in="SourceGraphic" in2="effect1_dropShadow_119_6" result="shape"/>
</filter>
<linearGradient id="paint0_linear_119_6" x1="174.278" y1="214.761" x2="464.303" y2="355.79" gradientUnits="userSpaceOnUse">
<stop stop-color="#724F48"/>
<stop offset="1" stop-color="#4B322D"/>
</linearGradient>
<linearGradient id="paint1_linear_119_6" x1="495.486" y1="230.471" x2="517.766" y2="360.573" gradientUnits="userSpaceOnUse">
<stop stop-color="#FDD974"/>
<stop offset="1" stop-color="#FF6200"/>
</linearGradient>
<linearGradient id="paint2_linear_119_6" x1="502.012" y1="268.573" x2="517.767" y2="360.574" gradientUnits="userSpaceOnUse">
<stop stop-color="#FECE52"/>
<stop offset="1" stop-color="#FFC42D"/>
</linearGradient>
</defs>
</svg>
