<svg width="468" height="312" viewBox="0 0 468 312" fill="none" xmlns="http://www.w3.org/2000/svg">
<path d="M283.043 61.2754C283.787 59.057 287.023 59.3869 287.304 61.7099L288.27 69.6875C288.453 71.1931 290.07 72.0648 291.428 71.3893L298.623 67.8101C300.718 66.7679 302.772 69.2889 301.329 71.1305L296.371 77.4548C295.435 78.6483 295.963 80.4084 297.4 80.8909L305.019 83.4475C307.237 84.1919 306.907 87.4273 304.584 87.7087L296.607 88.675C295.101 88.8574 294.229 90.4748 294.905 91.8326L298.484 99.0274C299.526 101.122 297.005 103.177 295.164 101.733L288.839 96.7755C287.646 95.8399 285.886 96.3672 285.403 97.805L282.847 105.423C282.102 107.642 278.867 107.312 278.585 104.989L277.619 97.0112C277.437 95.5057 275.819 94.634 274.461 95.3095L267.267 98.8887C265.172 99.9309 263.117 97.4099 264.561 95.5683L269.519 89.244C270.454 88.0505 269.927 86.2904 268.489 85.8079L260.871 83.2513C258.652 82.5068 258.982 79.2715 261.305 78.9901L269.283 78.0238C270.788 77.8414 271.66 76.224 270.985 74.8662L267.405 67.6713C266.363 65.5763 268.884 63.5218 270.726 64.9655L277.05 69.9232C278.244 70.8588 280.004 70.3315 280.486 68.8938L283.043 61.2754Z" fill="#E1DCD0"/>
<path d="M79.7871 85.0764C73.814 87.0839 59.7986 97.3046 70.3369 99.9148C71.1336 100.112 71.9415 100.248 72.7553 100.331M79.7871 85.0764C80.2397 84.9243 80.6462 84.8193 80.9923 84.7684L79.7871 85.0764ZM72.7553 100.331C81.2045 101.187 90.2832 96.2296 94.0446 93.3928C95.8492 92.0318 98.1045 89.8576 99.477 87.4621M72.7553 100.331C70.215 102.327 66.437 107.404 71.6475 111.746C71.9353 111.986 72.2508 112.202 72.5914 112.396M99.477 87.4621C101.241 84.3838 101.546 80.9398 97.5643 78.3858C88.7133 72.7087 70.5326 83.1968 64.3505 87.5832C58.1684 91.9695 52.4127 78.9718 48.5074 69.7856C44.6021 60.5995 36.3671 49.9136 32.1702 56.1067C27.9734 62.2998 31.3736 67.0213 48.0507 108.794C59.5945 137.709 61.0147 154.116 60.049 160.72C59.8395 162.152 60.2737 163.722 61.4918 164.505C76.356 174.057 91.3344 169.125 98.6486 164.422C99.775 163.698 100.175 162.281 99.7602 161.008C94.1628 143.844 94.5615 133.297 95.72 130.516M99.477 87.4621L101.012 90.6246C101.845 92.339 102.147 94.2949 101.557 96.1072C101.202 97.1964 100.778 98.2358 100.293 99.225M72.5914 112.396C70.6833 114.984 68.6671 120.673 75.8663 122.719C83.0392 124.758 96.3265 118.724 101.48 111.393M72.5914 112.396C79.0054 116.041 94.285 111.486 100.293 99.225M100.293 99.225L102.604 103.719C103.257 104.99 103.667 106.426 103.271 107.8C102.922 109.012 102.305 110.219 101.48 111.393M77.1985 123.181C76.3822 126.255 76.62 132.604 84.1013 133.405C93.2345 134.383 108.339 124.798 104.477 114.951C104.291 114.478 103.99 114.056 103.641 113.686L101.48 111.393" stroke="black" stroke-width="4.35709"/>
<path d="M54.6638 25.6154C54.402 24.2451 56.1219 23.4102 57.0367 24.4635L61.7775 29.9248C62.4756 30.7287 63.5253 31.1276 64.5729 30.9984L64.7816 30.9654L71.8849 29.6068C73.2551 29.3452 74.09 31.065 73.0368 31.9797L67.5755 36.7206C66.7715 37.4186 66.3727 38.4683 66.5019 39.516L66.5349 39.7247L67.8935 46.8279C68.1552 48.1981 66.4353 49.033 65.5206 47.9798L60.7797 42.5185C60.0353 41.6612 58.8909 41.2648 57.7756 41.4779L50.6724 42.8365C49.3021 43.0983 48.4672 41.3784 49.5205 40.4636L54.9818 35.7228C55.8391 34.9783 56.2355 33.8339 56.0224 32.7187L54.6638 25.6154Z" fill="#FFCA00" stroke="black" stroke-width="1.82071"/>
<path d="M87.8477 42.1647C87.5211 41.5254 88.251 40.8653 88.8545 41.2542L92.6077 43.6731C93.239 44.0798 94.0395 44.1201 94.7084 43.7785L98.6843 41.7469C99.3234 41.4208 99.9832 42.1504 99.5948 42.7536L97.176 46.5069C96.769 47.1383 96.7288 47.9386 97.0705 48.6076L99.1014 52.5841C99.4275 53.2233 98.698 53.8831 98.0947 53.4947L94.3422 51.0752C93.7109 50.6683 92.9104 50.6283 92.2415 50.9697L88.2649 53.0006C87.6255 53.3272 86.9654 52.5973 87.3544 51.9939L89.7739 48.2414C90.1807 47.6101 90.2208 46.8095 89.8793 46.1406L87.8477 42.1647Z" fill="#FFCA00" stroke="black" stroke-width="1.40523"/>
<g filter="url(#filter0_d_119_6)">
<rect x="91.9793" y="174.411" width="303.477" height="93.6626" rx="46.8313" transform="rotate(3.65955 91.9793 174.411)" fill="url(#paint0_linear_119_6)" stroke="#3E211C" stroke-width="0.818781"/>
<rect x="195.286" y="208.511" width="103.604" height="17.6108" rx="6.55025" transform="rotate(2.48987 195.286 208.511)" fill="#D9D9D9"/>
<rect x="194.373" y="234.916" width="79.4707" height="14.7718" rx="6.55025" transform="rotate(2.48987 194.373 234.916)" fill="#D9D9D9"/>
<circle cx="145.839" cy="226.43" r="31.6024" fill="#FECD4F"/>
<path d="M135.93 211.868C140.35 204.267 151.328 204.267 155.748 211.868L155.934 212.187C156.934 213.906 158.363 215.335 160.081 216.334L160.401 216.52C168.002 220.94 168.002 231.919 160.401 236.339L160.081 236.525C158.363 237.524 156.934 238.953 155.934 240.672L155.748 240.992C151.328 248.592 140.35 248.592 135.93 240.992L135.744 240.672C134.744 238.953 133.315 237.524 131.597 236.525L131.277 236.339C123.676 231.919 123.676 220.94 131.277 216.52L131.597 216.334C133.315 215.335 134.744 213.906 135.744 212.187L135.93 211.868Z" fill="white"/>
</g>
<path d="M346.474 201.316C345.595 196.184 349.043 191.311 354.176 190.432L369.771 187.761C370.918 187.565 372.092 187.583 373.233 187.813L394.226 192.063C395.367 192.294 396.541 192.312 397.688 192.115L437.689 185.265C442.821 184.386 447.694 187.834 448.573 192.967L461.601 269.043C462.48 274.176 459.032 279.049 453.9 279.928L371.907 293.969C366.774 294.848 361.901 291.4 361.022 286.268L346.474 201.316Z" fill="url(#paint1_linear_119_6)"/>
<rect x="358.17" y="211.824" width="84.0357" height="44.2688" rx="7.54267" transform="rotate(-9.71769 358.17 211.824)" fill="white"/>
<path d="M349.078 230.439C348.209 226.258 350.981 222.19 355.189 221.47L376.7 217.786L399.996 213.796L447.524 205.657C451.821 204.921 455.846 207.972 456.299 212.308L462.46 271.311C462.872 275.264 460.148 278.858 456.231 279.529L369.79 294.332C365.787 295.018 361.959 292.41 361.133 288.433L349.078 230.439Z" fill="url(#paint2_linear_119_6)"/>
<path d="M368.8 284.348L368.45 282.303L366.04 279.152L366.929 279L368.849 281.651L368.652 281.685L369.572 278.547L370.453 278.397L369.237 282.168L369.587 284.213L368.8 284.348ZM373.205 283.691C372.832 283.755 372.482 283.726 372.153 283.604C371.83 283.481 371.555 283.28 371.329 283C371.107 282.714 370.961 282.366 370.891 281.957C370.82 281.538 370.844 281.158 370.964 280.819C371.083 280.475 371.277 280.191 371.546 279.967C371.816 279.742 372.137 279.598 372.509 279.534C372.887 279.47 373.237 279.499 373.56 279.622C373.884 279.744 374.156 279.946 374.377 280.227C374.603 280.507 374.752 280.856 374.823 281.276C374.895 281.695 374.871 282.075 374.751 282.414C374.636 282.752 374.444 283.033 374.175 283.257C373.906 283.482 373.582 283.626 373.205 283.691ZM373.089 283.014C373.304 282.977 373.489 282.892 373.644 282.757C373.804 282.622 373.919 282.443 373.989 282.22C374.063 281.992 374.074 281.723 374.021 281.413C373.968 281.104 373.872 280.856 373.732 280.669C373.591 280.477 373.422 280.344 373.226 280.27C373.035 280.195 372.835 280.175 372.625 280.211C372.415 280.247 372.23 280.333 372.07 280.468C371.909 280.603 371.792 280.786 371.718 281.014C371.648 281.237 371.639 281.503 371.692 281.812C371.745 282.121 371.842 282.372 371.983 282.564C372.128 282.75 372.296 282.88 372.487 282.955C372.684 283.03 372.884 283.049 373.089 283.014ZM377.56 282.945C377.25 282.998 376.97 282.981 376.717 282.895C376.47 282.808 376.262 282.649 376.093 282.419C375.929 282.188 375.815 281.881 375.749 281.498L375.346 279.146L376.133 279.011L376.521 281.277C376.585 281.649 376.714 281.916 376.909 282.077C377.104 282.238 377.354 282.292 377.658 282.24C377.862 282.205 378.037 282.124 378.183 281.996C378.334 281.868 378.44 281.701 378.502 281.496C378.564 281.291 378.572 281.052 378.525 280.78L378.163 278.663L378.949 278.529L379.628 282.494L378.928 282.613L378.757 281.946C378.678 282.208 378.535 282.427 378.327 282.603C378.12 282.779 377.864 282.893 377.56 282.945ZM380.705 282.309L380.026 278.344L380.734 278.223L380.933 278.958C380.992 278.765 381.082 278.595 381.203 278.451C381.323 278.3 381.471 278.175 381.648 278.075C381.831 277.973 382.045 277.901 382.292 277.859L382.434 278.693L382.151 278.742C381.989 278.769 381.838 278.817 381.698 278.884C381.557 278.946 381.437 279.034 381.338 279.148C381.244 279.261 381.18 279.405 381.145 279.578C381.11 279.751 381.113 279.959 381.154 280.2L381.492 282.174L380.705 282.309ZM369.104 294.441L368.161 288.935L369.852 288.645C370.492 288.536 371.041 288.558 371.499 288.711C371.957 288.865 372.321 289.132 372.592 289.512C372.866 289.886 373.052 290.356 373.149 290.923C373.246 291.489 373.227 291.994 373.093 292.438C372.964 292.882 372.709 293.252 372.328 293.549C371.951 293.841 371.44 294.041 370.795 294.152L369.104 294.441ZM369.777 293.646L370.65 293.496C371.159 293.409 371.549 293.256 371.819 293.037C372.089 292.818 372.261 292.543 372.333 292.212C372.411 291.875 372.412 291.492 372.339 291.061C372.264 290.626 372.135 290.262 371.95 289.97C371.77 289.677 371.516 289.472 371.188 289.356C370.861 289.239 370.443 289.224 369.934 289.311L369.061 289.461L369.777 293.646ZM376.352 293.297C375.98 293.361 375.629 293.332 375.301 293.21C374.977 293.087 374.703 292.886 374.477 292.606C374.255 292.32 374.109 291.973 374.039 291.564C373.967 291.144 373.991 290.765 374.111 290.426C374.231 290.082 374.425 289.797 374.694 289.573C374.963 289.349 375.284 289.205 375.657 289.141C376.034 289.076 376.385 289.105 376.708 289.228C377.031 289.351 377.303 289.553 377.524 289.833C377.75 290.113 377.899 290.463 377.971 290.882C378.043 291.302 378.019 291.681 377.899 292.02C377.784 292.358 377.592 292.64 377.322 292.864C377.053 293.088 376.73 293.233 376.352 293.297ZM376.236 292.621C376.451 292.584 376.636 292.498 376.791 292.364C376.952 292.228 377.067 292.049 377.137 291.827C377.211 291.598 377.222 291.329 377.169 291.02C377.116 290.71 377.019 290.462 376.879 290.276C376.738 290.084 376.57 289.951 376.374 289.877C376.183 289.801 375.982 289.782 375.772 289.818C375.563 289.853 375.378 289.939 375.217 290.075C375.057 290.21 374.94 290.392 374.865 290.621C374.795 290.843 374.787 291.109 374.84 291.419C374.893 291.728 374.99 291.979 375.131 292.17C375.276 292.356 375.444 292.487 375.635 292.562C375.831 292.636 376.032 292.656 376.236 292.621ZM381.085 292.487C380.702 292.552 380.346 292.524 380.018 292.402C379.688 292.275 379.411 292.072 379.185 291.792C378.964 291.511 378.818 291.166 378.748 290.757C378.677 290.343 378.699 289.967 378.814 289.629C378.933 289.284 379.128 289 379.397 288.776C379.665 288.546 379.991 288.399 380.374 288.333C380.856 288.251 381.282 288.307 381.65 288.503C382.018 288.699 382.284 289.005 382.446 289.42L381.628 289.56C381.536 289.338 381.385 289.18 381.175 289.087C380.97 288.992 380.739 288.967 380.482 289.011C380.272 289.047 380.087 289.135 379.928 289.276C379.767 289.411 379.65 289.593 379.576 289.822C379.506 290.045 379.497 290.308 379.549 290.612C379.588 290.838 379.654 291.034 379.747 291.202C379.84 291.364 379.949 291.496 380.075 291.599C380.205 291.701 380.347 291.771 380.499 291.81C380.651 291.843 380.805 291.846 380.963 291.82C381.136 291.79 381.286 291.737 381.413 291.661C381.545 291.579 381.649 291.475 381.724 291.349C381.805 291.222 381.851 291.079 381.861 290.921L382.68 290.781C382.662 291.215 382.513 291.589 382.232 291.902C381.95 292.209 381.568 292.404 381.085 292.487ZM385.372 291.753C385.037 291.81 384.734 291.805 384.463 291.738C384.192 291.671 383.967 291.551 383.786 291.377C383.605 291.202 383.476 290.984 383.398 290.722L384.201 290.585C384.249 290.706 384.318 290.813 384.41 290.905C384.506 290.997 384.625 291.063 384.767 291.103C384.914 291.143 385.08 291.147 385.263 291.115C385.436 291.086 385.574 291.038 385.676 290.972C385.782 290.9 385.855 290.817 385.893 290.724C385.93 290.626 385.94 290.527 385.923 290.428C385.898 290.281 385.842 290.177 385.756 290.116C385.675 290.049 385.559 290.007 385.411 289.989C385.266 289.965 385.094 289.951 384.893 289.948C384.704 289.948 384.519 289.937 384.337 289.914C384.159 289.885 383.995 289.84 383.844 289.779C383.699 289.718 383.576 289.631 383.476 289.519C383.375 289.401 383.308 289.248 383.275 289.059C383.237 288.833 383.263 288.621 383.353 288.422C383.442 288.218 383.588 288.047 383.791 287.91C383.999 287.766 384.255 287.669 384.559 287.616C384.999 287.541 385.371 287.585 385.675 287.749C385.978 287.913 386.186 288.183 386.299 288.557L385.536 288.688C385.484 288.513 385.382 288.39 385.23 288.319C385.076 288.243 384.887 288.224 384.661 288.263C384.436 288.302 384.271 288.376 384.165 288.486C384.06 288.595 384.02 288.724 384.045 288.871C384.061 288.965 384.109 289.043 384.19 289.105C384.271 289.167 384.381 289.212 384.522 289.242C384.666 289.266 384.839 289.283 385.04 289.291C385.327 289.296 385.587 289.319 385.821 289.36C386.055 289.401 386.25 289.486 386.407 289.616C386.565 289.745 386.667 289.952 386.716 290.235C386.763 290.481 386.738 290.709 386.639 290.92C386.545 291.131 386.39 291.309 386.172 291.454C385.959 291.598 385.692 291.698 385.372 291.753Z" fill="white"/>
<g filter="url(#filter1_d_119_6)">
<rect x="128.329" y="90.9817" width="303.477" height="93.6626" rx="46.8313" fill="white" stroke="#CBCBCB" stroke-width="0.818781"/>
<g clip-path="url(#clip0_119_6)">
<path d="M185.477 120.464C186.952 120.464 188.372 121.028 189.445 122.04C190.518 123.052 191.164 124.435 191.251 125.908L191.26 126.247V145.524H192.706C193.953 145.524 194.981 146.472 195.104 147.686L195.116 147.933V151.307C195.116 152.782 194.552 154.201 193.54 155.274C192.528 156.347 191.144 156.993 189.672 157.08L189.333 157.089H170.056C168.581 157.09 167.162 156.526 166.089 155.514C165.016 154.502 164.37 153.118 164.283 151.646L164.273 151.307V132.03H160.9C160.304 132.03 159.728 131.809 159.285 131.41C158.842 131.01 158.563 130.461 158.502 129.867L158.49 129.621V126.247C158.49 124.772 159.054 123.353 160.066 122.28C161.078 121.206 162.462 120.561 163.934 120.474L164.273 120.464H185.477ZM191.26 149.379H173.912V151.307C173.912 151.981 173.796 152.631 173.584 153.234H189.333C189.844 153.234 190.334 153.031 190.696 152.67C191.057 152.308 191.26 151.818 191.26 151.307V149.379ZM177.767 137.813H173.912C173.42 137.814 172.948 138.002 172.59 138.339C172.233 138.676 172.018 139.137 171.989 139.628C171.961 140.118 172.12 140.601 172.436 140.978C172.751 141.355 173.198 141.597 173.686 141.655L173.912 141.668H177.767C178.258 141.668 178.731 141.48 179.088 141.142C179.445 140.805 179.66 140.344 179.689 139.854C179.718 139.363 179.558 138.88 179.243 138.504C178.928 138.127 178.48 137.885 177.992 137.827L177.767 137.813ZM181.622 130.103H173.912C173.4 130.103 172.91 130.306 172.549 130.667C172.187 131.029 171.984 131.519 171.984 132.03C171.984 132.541 172.187 133.032 172.549 133.393C172.91 133.755 173.4 133.958 173.912 133.958H181.622C182.133 133.958 182.624 133.755 182.985 133.393C183.347 133.032 183.55 132.541 183.55 132.03C183.55 131.519 183.347 131.029 182.985 130.667C182.624 130.306 182.133 130.103 181.622 130.103ZM164.273 124.32C163.762 124.32 163.272 124.523 162.91 124.884C162.549 125.246 162.346 125.736 162.346 126.247V128.175H164.273V124.32Z" fill="#4B322D"/>
</g>
<rect x="223.704" y="130.971" width="103.604" height="14.3351" rx="6.55025" fill="#D9D9D9"/>
<rect x="331.869" y="130.971" width="15.6383" height="14.3351" rx="6.55025" fill="#D9D9D9"/>
<path d="M418.642 144.163L417.664 145.141C416.857 145.948 416.848 147.254 417.645 148.072L424.996 155.622C425.772 156.419 427.067 156.365 427.774 155.507L440.615 139.915C441.351 139.021 441.219 137.698 440.32 136.968L439.134 136.005C438.242 135.28 436.933 135.413 436.204 136.301L427.6 146.794C426.83 147.733 425.424 147.819 424.545 146.981L421.558 144.129C420.738 143.347 419.443 143.362 418.642 144.163Z" fill="white"/>
</g>
<rect x="107.72" y="93.2319" width="113.499" height="24.7606" rx="12.3803" transform="rotate(-15 107.72 93.2319)" fill="#D45303"/>
<path d="M125.077 94.6592C126.15 94.3719 127.142 94.3286 128.055 94.5291C128.975 94.7174 129.756 95.1396 130.398 95.7959C131.047 96.4399 131.508 97.2739 131.783 98.2978C132.057 99.3217 132.073 100.27 131.83 101.142C131.598 102.012 131.13 102.759 130.427 103.382C129.732 103.993 128.848 104.442 127.776 104.729L124.487 105.61L121.788 95.5405L125.077 94.6592ZM127.415 103.382C128.593 103.066 129.411 102.505 129.868 101.699C130.325 100.894 130.398 99.9111 130.087 98.752C129.774 97.5832 129.216 96.7545 128.412 96.2659C127.608 95.7774 126.617 95.6909 125.438 96.0067L123.801 96.4454L125.777 103.82L127.415 103.382ZM138.257 102.06C137.503 102.262 136.777 102.276 136.078 102.101C135.376 101.916 134.769 101.561 134.255 101.036C133.739 100.501 133.371 99.8235 133.151 99.0025C132.934 98.1911 132.92 97.4236 133.109 96.7C133.298 95.9764 133.657 95.3627 134.184 94.859C134.712 94.3553 135.357 94.0012 136.12 93.7967C136.883 93.5923 137.619 93.5763 138.328 93.7487C139.037 93.9211 139.654 94.2734 140.18 94.8055C140.705 95.3376 141.077 96.0093 141.294 96.8207C141.512 97.632 141.521 98.4008 141.322 99.127C141.123 99.8532 140.752 100.476 140.207 100.994C139.67 101.5 139.02 101.856 138.257 102.06ZM137.872 100.626C138.297 100.512 138.666 100.305 138.979 100.003C139.301 99.6995 139.524 99.3137 139.647 98.8459C139.77 98.3781 139.754 97.8545 139.599 97.2749C139.444 96.6953 139.202 96.2373 138.874 95.9008C138.543 95.5546 138.167 95.3293 137.745 95.2248C137.324 95.1203 136.901 95.125 136.476 95.2389C136.051 95.3528 135.682 95.5603 135.369 95.8615C135.066 96.1601 134.863 96.5407 134.759 97.0034C134.652 97.4563 134.677 97.9726 134.832 98.5522C135.062 99.4118 135.458 100.02 136.02 100.377C136.588 100.722 137.206 100.805 137.872 100.626ZM142.376 96.5307C142.156 95.7096 142.128 94.946 142.291 94.2398C142.46 93.5214 142.795 92.9142 143.293 92.4182C143.792 91.9223 144.423 91.5721 145.186 91.3676C146.152 91.1088 147.011 91.1271 147.763 91.4225C148.522 91.7057 149.127 92.2425 149.576 93.033L147.794 93.5105C147.543 93.1533 147.229 92.9063 146.85 92.7696C146.472 92.6328 146.041 92.6291 145.559 92.7586C144.882 92.9397 144.406 93.3261 144.13 93.9178C143.861 94.4972 143.841 95.2168 144.072 96.0765C144.302 96.9361 144.68 97.5544 145.205 97.9312C145.74 98.3055 146.346 98.402 147.022 98.2209C147.978 97.9646 148.499 97.3749 148.582 96.4517L150.365 95.9742C150.35 96.8477 150.089 97.6114 149.581 98.2651C149.07 98.9093 148.341 99.3582 147.395 99.6118C146.632 99.8163 145.91 99.8284 145.231 99.6482C144.548 99.4583 143.955 99.0996 143.451 98.572C142.955 98.0322 142.596 97.3517 142.376 96.5307ZM157.777 88.1336L159.916 96.117L158.264 96.5596L158.012 95.6178C157.839 96.0161 157.566 96.3687 157.193 96.6758C156.827 96.9706 156.407 97.1815 155.934 97.3083C155.306 97.4765 154.706 97.4975 154.134 97.3713C153.571 97.2425 153.076 96.961 152.65 96.5267C152.232 96.0898 151.927 95.5091 151.732 94.7847L150.475 90.0903L152.112 89.6516L153.304 94.0997C153.495 94.8144 153.821 95.3171 154.282 95.6077C154.741 95.8887 155.279 95.9463 155.897 95.7807C156.515 95.6151 156.953 95.296 157.209 94.8235C157.473 94.3388 157.509 93.739 157.317 93.0243L156.125 88.5762L157.777 88.1336ZM169.585 84.8298C170.213 84.6615 170.808 84.6418 171.371 84.7706C171.943 84.8968 172.438 85.1784 172.855 85.6153C173.282 86.0496 173.593 86.6289 173.787 87.3534L175.049 92.0623L173.411 92.501L172.216 88.0384C172.024 87.3236 171.699 86.8257 171.241 86.5448C170.78 86.2542 170.24 86.1917 169.622 86.3573C169.004 86.523 168.563 86.8482 168.299 87.3329C168.043 87.8054 168.011 88.399 168.202 89.1138L169.398 93.5763L167.761 94.015L166.565 89.5525C166.373 88.8377 166.048 88.3398 165.59 88.0589C165.129 87.7683 164.59 87.7058 163.971 87.8714C163.353 88.0371 162.912 88.3623 162.649 88.847C162.392 89.3194 162.36 89.9131 162.551 90.6279L163.747 95.0904L162.095 95.533L159.956 87.5496L161.608 87.1071L161.853 88.0199C162.035 87.619 162.309 87.2711 162.676 86.9763C163.042 86.6815 163.461 86.4707 163.935 86.3438C164.572 86.173 165.178 86.1556 165.753 86.2914C166.328 86.4273 166.819 86.715 167.227 87.1544C167.339 86.6068 167.613 86.1243 168.05 85.707C168.484 85.2801 168.996 84.9876 169.585 84.8298ZM183.345 85.3512C183.425 85.6507 183.479 85.9263 183.505 86.1781L177.405 87.8126C177.624 88.4372 177.998 88.8857 178.526 89.1582C179.055 89.4307 179.628 89.4841 180.246 89.3184C181.135 89.0803 181.663 88.5402 181.831 87.6981L183.613 87.2206C183.568 88.0194 183.291 88.7409 182.78 89.385C182.276 90.0169 181.556 90.4583 180.619 90.7094C179.856 90.9138 179.125 90.9286 178.426 90.7536C177.734 90.5663 177.131 90.2101 176.618 89.6851C176.111 89.1479 175.748 88.4687 175.528 87.6477C175.308 86.8266 175.28 86.063 175.442 85.3568C175.612 84.6384 175.951 84.0299 176.46 83.5314C176.978 83.0302 177.628 82.6748 178.41 82.4652C179.164 82.2633 179.879 82.2477 180.556 82.4182C181.233 82.5887 181.816 82.9294 182.305 83.4403C182.791 83.9415 183.138 84.5785 183.345 85.3512ZM181.481 85.2916C181.309 84.6857 180.961 84.2561 180.437 84.003C179.914 83.7498 179.338 83.7073 178.71 83.8755C178.14 84.0283 177.702 84.3425 177.394 84.8182C177.085 85.2843 176.974 85.8368 177.062 86.4757L181.481 85.2916ZM187.946 79.9099C188.574 79.7417 189.17 79.722 189.732 79.8508C190.304 79.977 190.799 80.2585 191.216 80.6954C191.633 81.1323 191.939 81.713 192.133 82.4374L193.395 87.1463L191.758 87.585L190.562 83.1224C190.371 82.4076 190.046 81.9098 189.587 81.6288C189.126 81.3382 188.587 81.2757 187.969 81.4414C187.35 81.607 186.91 81.9322 186.646 82.4169C186.39 82.8894 186.357 83.483 186.549 84.1978L187.744 88.6604L186.093 89.103L183.954 81.1196L185.605 80.677L185.85 81.5898C186.032 81.1889 186.307 80.8411 186.673 80.5463C187.049 80.2489 187.473 80.0368 187.946 79.9099ZM195.651 79.4295L196.835 83.8486C196.915 84.1481 197.041 84.3473 197.213 84.4463C197.391 84.533 197.649 84.5311 197.987 84.4405L199.002 84.1688L199.37 85.5452L198.066 85.8946C197.323 86.0939 196.706 86.0727 196.217 85.8311C195.728 85.5895 195.378 85.0775 195.169 84.2951L193.985 79.876L193.043 80.1283L192.682 78.7809L193.624 78.5285L193.092 76.5435L194.758 76.0971L195.29 78.0821L197.231 77.5618L197.592 78.9093L195.651 79.4295Z" fill="white"/>
<path d="M395.189 51.4899C395.608 50.5401 396.998 50.6819 397.217 51.6967L398.709 58.6145C398.807 59.0684 399.186 59.4075 399.648 59.4546L406.689 60.1725C407.722 60.2779 408.016 61.6434 407.119 62.1653L401.001 65.7228C400.6 65.9562 400.394 66.4215 400.492 66.8753L401.985 73.7931C402.204 74.808 400.996 75.5102 400.223 74.8179L394.949 70.0988C394.603 69.7892 394.097 69.7376 393.695 69.971L387.578 73.5285C386.68 74.0504 385.639 73.1189 386.058 72.1691L388.917 65.695C389.104 65.2703 388.997 64.7731 388.651 64.4634L383.377 59.7443C382.603 59.052 383.168 57.7741 384.2 57.8794L391.241 58.5973C391.703 58.6444 392.143 58.3887 392.33 57.964L395.189 51.4899Z" fill="#4B322D"/>
<path d="M63.3073 266.359C63.389 264.799 65.419 264.255 66.2696 265.565L72.0683 274.494C72.4487 275.08 73.1631 275.354 73.8378 275.174L84.1218 272.418C85.6305 272.014 86.7751 273.776 85.7921 274.99L79.0919 283.264C78.6523 283.807 78.6123 284.571 78.9927 285.157L84.7913 294.086C85.642 295.396 84.3195 297.029 82.8613 296.47L72.9217 292.654C72.2696 292.404 71.5304 292.602 71.0908 293.145L64.3906 301.419C63.4077 302.633 61.4457 301.88 61.5275 300.32L62.0847 289.688C62.1212 288.99 61.7044 288.348 61.0523 288.098L51.1127 284.283C49.6546 283.723 49.7645 281.624 51.2732 281.22L61.5572 278.464C62.2319 278.283 62.7135 277.689 62.75 276.991L63.3073 266.359Z" fill="#EC705C"/>
<path fill-rule="evenodd" clip-rule="evenodd" d="M421.312 185.955C424.796 185.955 428.245 185.268 431.464 183.935C434.682 182.602 437.607 180.648 440.07 178.185C442.533 175.722 444.487 172.797 445.82 169.579C447.153 166.361 447.839 162.911 447.839 159.428C447.839 155.944 447.153 152.495 445.82 149.276C444.487 146.058 442.533 143.133 440.07 140.67C437.607 138.207 434.682 136.253 431.464 134.92C428.245 133.587 424.796 132.901 421.312 132.901C414.277 132.901 407.53 135.695 402.555 140.67C397.58 145.645 394.785 152.392 394.785 159.428C394.785 166.463 397.58 173.21 402.555 178.185C407.53 183.16 414.277 185.955 421.312 185.955ZM420.629 170.156L435.366 152.472L430.839 148.699L418.165 163.905L411.606 157.344L407.439 161.511L416.281 170.354L418.562 172.635L420.629 170.156Z" fill="#446358"/>
<path d="M409.245 157.766L408.051 158.96C407.065 159.946 407.054 161.541 408.027 162.54L417.006 171.762C417.953 172.734 419.535 172.669 420.398 171.621L436.081 152.577C436.98 151.485 436.818 149.871 435.721 148.979L434.272 147.802C433.183 146.917 431.584 147.079 430.694 148.164L420.185 160.98C419.245 162.127 417.528 162.231 416.455 161.207L412.807 157.725C411.805 156.769 410.224 156.787 409.245 157.766Z" fill="white"/>
<defs>
<filter id="filter0_d_119_6" x="88.4836" y="176.894" width="305.508" height="114.427" filterUnits="userSpaceOnUse" color-interpolation-filters="sRGB">
<feFlood flood-opacity="0" result="BackgroundImageFix"/>
<feColorMatrix in="SourceAlpha" type="matrix" values="0 0 0 0 0 0 0 0 0 0 0 0 0 0 0 0 0 0 127 0" result="hardAlpha"/>
<feOffset dx="1.63756" dy="6.55025"/>
<feComposite in2="hardAlpha" operator="out"/>
<feColorMatrix type="matrix" values="0 0 0 0 0 0 0 0 0 0 0 0 0 0 0 0 0 0 0.1 0"/>
<feBlend mode="normal" in2="BackgroundImageFix" result="effect1_dropShadow_119_6"/>
<feBlend mode="normal" in="SourceGraphic" in2="effect1_dropShadow_119_6" result="shape"/>
</filter>
<filter id="filter1_d_119_6" x="125.463" y="90.5723" width="315.627" height="102.669" filterUnits="userSpaceOnUse" color-interpolation-filters="sRGB">
<feFlood flood-opacity="0" result="BackgroundImageFix"/>
<feColorMatrix in="SourceAlpha" type="matrix" values="0 0 0 0 0 0 0 0 0 0 0 0 0 0 0 0 0 0 127 0" result="hardAlpha"/>
<feOffset dx="-2.45634" dy="8.18781"/>
<feComposite in2="hardAlpha" operator="out"/>
<feColorMatrix type="matrix" values="0 0 0 0 0 0 0 0 0 0 0 0 0 0 0 0 0 0 0.1 0"/>
<feBlend mode="normal" in2="BackgroundImageFix" result="effect1_dropShadow_119_6"/>
<feBlend mode="normal" in="SourceGraphic" in2="effect1_dropShadow_119_6" result="shape"/>
</filter>
<linearGradient id="paint0_linear_119_6" x1="139.551" y1="170.909" x2="370.357" y2="283.142" gradientUnits="userSpaceOnUse">
<stop stop-color="#724F48"/>
<stop offset="1" stop-color="#4B322D"/>
</linearGradient>
<linearGradient id="paint1_linear_119_6" x1="395.172" y1="183.411" x2="412.903" y2="286.949" gradientUnits="userSpaceOnUse">
<stop stop-color="#FDD974"/>
<stop offset="1" stop-color="#FF6200"/>
</linearGradient>
<linearGradient id="paint2_linear_119_6" x1="400.366" y1="213.733" x2="412.904" y2="286.949" gradientUnits="userSpaceOnUse">
<stop stop-color="#FECE52"/>
<stop offset="1" stop-color="#FFC42D"/>
</linearGradient>
<clipPath id="clip0_119_6">
<rect width="46.2633" height="46.2633" fill="white" transform="translate(154.635 111.423)"/>
</clipPath>
</defs>
</svg>
